Lexend-Thin.ufo
<glyph name="numbersign" format="2">
  <advance width="687"/>
  <unicode hex="0023"/>
  <outline>
    <contour>
      <point x="411" y="0" type="line"/>
      <point x="433" y="0" type="line"/>
      <point x="553" y="700" type="line"/>
      <point x="531" y="700" type="line"/>
    </contour>
    <contour>
      <point x="41" y="216" type="line"/>
      <point x="609" y="216" type="line"/>
      <point x="609" y="238" type="line"/>
      <point x="41" y="238" type="line"/>
    </contour>
    <contour>
      <point x="132" y="0" type="line"/>
      <point x="154" y="0" type="line"/>
      <point x="274" y="700" type="line"/>
      <point x="252" y="700" type="line"/>
    </contour>
    <contour>
      <point x="79" y="475" type="line"/>
      <point x="646" y="475" type="line"/>
      <point x="646" y="497" type="line"/>
      <point x="79" y="497" type="line"/>
    </contour>
  </outline>
</glyph>
<glyph name="percent" format="2">
  <advance width="831"/>
  <unicode hex="0025"/>
  <outline>
    <contour>
      <point x="172" y="0" type="line"/>
      <point x="199" y="0" type="line"/>
      <point x="664" y="700" type="line"/>
      <point x="637" y="700" type="line"/>
    </contour>
    <contour>
      <point x="193" y="329" type="curve" smooth="yes"/>
      <point x="281" y="329"/>
      <point x="347" y="411.333"/>
      <point x="347" y="518" type="curve" smooth="yes"/>
      <point x="347" y="628.667"/>
      <point x="282.333" y="709"/>
      <point x="193" y="709" type="curve" smooth="yes"/>
      <point x="102.333" y="709"/>
      <point x="40" y="628.667"/>
      <point x="40" y="518" type="curve" smooth="yes"/>
      <point x="40" y="408.667"/>
      <point x="102.333" y="329"/>
    </contour>
    <contour>
      <point x="193" y="350" type="curve" smooth="yes"/>
      <point x="117" y="350"/>
      <point x="62" y="418"/>
      <point x="62" y="518" type="curve" smooth="yes"/>
      <point x="62" y="618"/>
      <point x="117" y="688"/>
      <point x="193" y="688" type="curve" smooth="yes"/>
      <point x="270.333" y="688"/>
      <point x="325" y="619.333"/>
      <point x="325" y="518" type="curve" smooth="yes"/>
      <point x="325" y="418"/>
      <point x="267.667" y="350"/>
    </contour>
    <contour>
      <point x="637" y="-9" type="curve" smooth="yes"/>
      <point x="725" y="-9"/>
      <point x="791" y="73.333"/>
      <point x="791" y="180" type="curve" smooth="yes"/>
      <point x="791" y="290.667"/>
      <point x="726.333" y="371"/>
      <point x="637" y="371" type="curve" smooth="yes"/>
      <point x="546.333" y="371"/>
      <point x="484" y="290.667"/>
      <point x="484" y="180" type="curve" smooth="yes"/>
      <point x="484" y="70.667"/>
      <point x="546.333" y="-9"/>
    </contour>
    <contour>
      <point x="637" y="12" type="curve" smooth="yes"/>
      <point x="561" y="12"/>
      <point x="506" y="80"/>
      <point x="506" y="180" type="curve" smooth="yes"/>
      <point x="506" y="280"/>
      <point x="561" y="350"/>
      <point x="637" y="350" type="curve" smooth="yes"/>
      <point x="714.333" y="350"/>
      <point x="769" y="281.333"/>
      <point x="769" y="180" type="curve" smooth="yes"/>
      <point x="769" y="80"/>
      <point x="711.667" y="12"/>
    </contour>
  </outline>
</glyph>
<glyph name="ampersand" format="2">
  <advance width="656"/>
  <unicode hex="0026"/>
  <outline>
    <contour>
      <point x="540" y="0" type="line"/>
      <point x="569" y="0" type="line"/>
      <point x="505" y="70" type="line"/>
      <point x="498" y="78" type="line"/>
      <point x="255" y="343" type="line" smooth="yes"/>
      <point x="169.667" y="436.333"/>
      <point x="151" y="461.333"/>
      <point x="151" y="528" type="curve" smooth="yes"/>
      <point x="151" y="616"/>
      <point x="217.667" y="681"/>
      <point x="323" y="681" type="curve" smooth="yes"/>
      <point x="403" y="681"/>
      <point x="452" y="647"/>
      <point x="488" y="567" type="curve"/>
      <point x="507" y="578" type="line"/>
      <point x="473.667" y="659.333"/>
      <point x="413.667" y="703"/>
      <point x="323" y="703" type="curve" smooth="yes"/>
      <point x="207" y="703"/>
      <point x="128" y="630"/>
      <point x="128" y="526" type="curve" smooth="yes"/>
      <point x="128" y="451.333"/>
      <point x="150.333" y="421"/>
      <point x="253" y="309" type="curve" smooth="yes"/>
      <point x="478" y="66" type="line"/>
      <point x="491" y="53" type="line"/>
    </contour>
    <contour>
      <point x="315" y="-10" type="curve" smooth="yes"/>
      <point x="501.667" y="-10"/>
      <point x="612" y="127.667"/>
      <point x="636" y="329" type="curve"/>
      <point x="614" y="329" type="line"/>
      <point x="591.333" y="135.667"/>
      <point x="481.667" y="12"/>
      <point x="319" y="12" type="curve" smooth="yes"/>
      <point x="175" y="12"/>
      <point x="73" y="98.333"/>
      <point x="73" y="221" type="curve" smooth="yes"/>
      <point x="73" y="298.333"/>
      <point x="120.333" y="370.667"/>
      <point x="195" y="404" type="curve"/>
      <point x="183" y="422" type="line"/>
      <point x="95" y="379.333"/>
      <point x="50" y="303.667"/>
      <point x="50" y="221" type="curve" smooth="yes"/>
      <point x="50" y="77"/>
      <point x="157.667" y="-10"/>
    </contour>
  </outline>
</glyph>
<glyph name="parenleft" format="2">
  <advance width="335"/>
  <unicode hex="0028"/>
  <outline>
    <contour>
      <point x="310" y="-186" type="curve"/>
      <point x="325" y="-169" type="line"/>
      <point x="157" y="-58.333"/>
      <point x="83" y="84.667"/>
      <point x="83" y="258" type="curve" smooth="yes"/>
      <point x="83" y="434"/>
      <point x="163.667" y="579.667"/>
      <point x="325" y="685" type="curve"/>
      <point x="311" y="702" type="line"/>
      <point x="148.333" y="600.667"/>
      <point x="60" y="443.333"/>
      <point x="60" y="258" type="curve" smooth="yes"/>
      <point x="60" y="71.333"/>
      <point x="147.333" y="-84.667"/>
    </contour>
  </outline>
</glyph>
<glyph name="parenright" format="2">
  <advance width="335"/>
  <unicode hex="0029"/>
  <outline>
    <contour>
      <point x="24" y="-186" type="line"/>
      <point x="187" y="-85"/>
      <point x="275" y="73"/>
      <point x="275" y="258" type="curve" smooth="yes"/>
      <point x="275" y="445"/>
      <point x="188" y="601"/>
      <point x="25" y="702" type="curve"/>
      <point x="10" y="685" type="line"/>
      <point x="178" y="574"/>
      <point x="252" y="431"/>
      <point x="252" y="258" type="curve" smooth="yes"/>
      <point x="252" y="82"/>
      <point x="171" y="-64"/>
      <point x="10" y="-169" type="curve"/>
    </contour>
  </outline>
</glyph>
<glyph name="period" format="2">
  <advance width="228"/>
  <unicode hex="002E"/>
  <outline>
    <contour>
      <point x="114" y="-5" type="curve" smooth="yes"/>
      <point x="132.667" y="-5"/>
      <point x="144" y="8.667"/>
      <point x="144" y="26" type="curve" smooth="yes"/>
      <point x="144" y="46"/>
      <point x="132.667" y="57"/>
      <point x="114" y="57" type="curve" smooth="yes"/>
      <point x="95.333" y="57"/>
      <point x="84" y="44.667"/>
      <point x="84" y="26" type="curve" smooth="yes"/>
      <point x="84" y="6"/>
      <point x="95.333" y="-5"/>
    </contour>
  </outline>
</glyph>
<glyph name="zero" format="2">
  <advance width="620"/>
  <unicode hex="0030"/>
  <outline>
    <contour>
      <point x="310" y="-10" type="curve" smooth="yes"/>
      <point x="478" y="-10"/>
      <point x="568" y="115.333"/>
      <point x="568" y="350" type="curve" smooth="yes"/>
      <point x="568" y="584.667"/>
      <point x="478" y="710"/>
      <point x="310" y="710" type="curve" smooth="yes"/>
      <point x="142" y="710"/>
      <point x="52" y="584.667"/>
      <point x="52" y="350" type="curve" smooth="yes"/>
      <point x="52" y="115.333"/>
      <point x="142" y="-10"/>
    </contour>
    <contour>
      <point x="310" y="12" type="curve" smooth="yes"/>
      <point x="159.333" y="12"/>
      <point x="75" y="132.667"/>
      <point x="75" y="350" type="curve" smooth="yes"/>
      <point x="75" y="567.333"/>
      <point x="159.333" y="688"/>
      <point x="310" y="688" type="curve" smooth="yes"/>
      <point x="462" y="688"/>
      <point x="545" y="567.333"/>
      <point x="545" y="350" type="curve" smooth="yes"/>
      <point x="545" y="132.667"/>
      <point x="462" y="12"/>
    </contour>
  </outline>
</glyph>
<glyph name="eight" format="2">
  <advance width="580"/>
  <unicode hex="0038"/>
  <outline>
    <contour>
      <point x="290" y="-3" type="curve" smooth="yes"/>
      <point x="422" y="-3"/>
      <point x="526" y="81"/>
      <point x="526" y="193" type="curve" smooth="yes"/>
      <point x="526" y="291.159"/>
      <point x="453.636" y="360.675"/>
      <point x="351" y="386" type="curve"/>
      <point x="347" y="374" type="line"/>
      <point x="439.017" y="390.003"/>
      <point x="495" y="459.8"/>
      <point x="495" y="530" type="curve" smooth="yes"/>
      <point x="495" y="636.667"/>
      <point x="404.667" y="710"/>
      <point x="290" y="710" type="curve" smooth="yes"/>
      <point x="176.667" y="710"/>
      <point x="86" y="636.667"/>
      <point x="86" y="530" type="curve" smooth="yes"/>
      <point x="86" y="459.8"/>
      <point x="142.323" y="386.001"/>
      <point x="233" y="374" type="curve"/>
      <point x="229" y="386" type="line"/>
      <point x="119.695" y="360.673"/>
      <point x="55" y="289.832"/>
      <point x="55" y="193" type="curve" smooth="yes"/>
      <point x="55" y="82.333"/>
      <point x="159.887" y="-3"/>
    </contour>
    <contour>
      <point x="290" y="19" type="curve" smooth="yes"/>
      <point x="174" y="19"/>
      <point x="78" y="101.667"/>
      <point x="78" y="191" type="curve" smooth="yes"/>
      <point x="78" y="295"/>
      <point x="168.667" y="368"/>
      <point x="290" y="368" type="curve" smooth="yes"/>
      <point x="412.667" y="368"/>
      <point x="503" y="295"/>
      <point x="503" y="191" type="curve" smooth="yes"/>
      <point x="503" y="100.333"/>
      <point x="407.333" y="19"/>
    </contour>
    <contour>
      <point x="290" y="388" type="curve" smooth="yes"/>
      <point x="186" y="388"/>
      <point x="109" y="451.667"/>
      <point x="109" y="537" type="curve" smooth="yes"/>
      <point x="109" y="621"/>
      <point x="186" y="688"/>
      <point x="290" y="688" type="curve" smooth="yes"/>
      <point x="395.333" y="688"/>
      <point x="472" y="621"/>
      <point x="472" y="537" type="curve" smooth="yes"/>
      <point x="472" y="449"/>
      <point x="395.333" y="388"/>
    </contour>
  </outline>
</glyph>
<glyph name="nine" format="2">
  <advance width="548"/>
  <unicode hex="0039"/>
  <outline>
    <contour>
      <point x="270" y="0" type="line"/>
      <point x="292" y="0" type="line"/>
      <point x="403" y="199" type="line" smooth="yes"/>
      <point x="454.901" y="292.049"/>
      <point x="502" y="383.667"/>
      <point x="502" y="476" type="curve" smooth="yes"/>
      <point x="502" y="613.383"/>
      <point x="400.888" y="710"/>
      <point x="275" y="710" type="curve" smooth="yes"/>
      <point x="147" y="710"/>
      <point x="47" y="607.333"/>
      <point x="47" y="478" type="curve" smooth="yes"/>
      <point x="47" y="346"/>
      <point x="147" y="245"/>
      <point x="275" y="245" type="curve" smooth="yes"/>
      <point x="360.333" y="245"/>
      <point x="430.333" y="289.667"/>
      <point x="481" y="387" type="curve"/>
      <point x="478" y="384" type="line"/>
      <point x="268" y="5" type="line"/>
    </contour>
    <contour>
      <point x="272" y="267" type="curve" smooth="yes"/>
      <point x="160" y="267"/>
      <point x="70" y="359.667"/>
      <point x="70" y="477" type="curve" smooth="yes"/>
      <point x="70" y="595.667"/>
      <point x="160" y="688"/>
      <point x="272" y="688" type="curve" smooth="yes"/>
      <point x="388" y="688"/>
      <point x="478" y="596.333"/>
      <point x="478" y="479" type="curve" smooth="yes"/>
      <point x="478" y="360.333"/>
      <point x="388" y="267"/>
    </contour>
  </outline>
</glyph>
<glyph name="less" format="2">
  <advance width="472"/>
  <unicode hex="003C"/>
  <outline>
    <contour>
      <point x="404" y="36" type="line"/>
      <point x="416" y="56" type="line"/>
      <point x="70" y="256" type="line"/>
      <point x="70" y="250" type="line"/>
      <point x="416" y="450" type="line"/>
      <point x="404" y="470" type="line"/>
      <point x="48" y="266" type="line"/>
      <point x="48" y="240" type="line"/>
    </contour>
  </outline>
</glyph>
<glyph name="equal" format="2">
  <advance width="566"/>
  <unicode hex="003D"/>
  <outline>
    <contour>
      <point x="65" y="347" type="line"/>
      <point x="501" y="347" type="line"/>
      <point x="501" y="371" type="line"/>
      <point x="65" y="371" type="line"/>
    </contour>
    <contour>
      <point x="65" y="190" type="line"/>
      <point x="501" y="190" type="line"/>
      <point x="501" y="214" type="line"/>
      <point x="65" y="214" type="line"/>
    </contour>
  </outline>
</glyph>
<glyph name="question" format="2">
  <advance width="438"/>
  <unicode hex="003F"/>
  <outline>
    <contour>
      <point x="186" y="146" type="line"/>
      <point x="206" y="146" type="line"/>
      <point x="207.926" y="300.091" type="line"/>
      <point x="324.289" y="330.022"/>
      <point x="398" y="416.646"/>
      <point x="398" y="522" type="curve" smooth="yes"/>
      <point x="398" y="627.333"/>
      <point x="317.333" y="710"/>
      <point x="200" y="710" type="curve" smooth="yes"/>
      <point x="108" y="710"/>
      <point x="30.667" y="656.333"/>
      <point x="0" y="559" type="curve"/>
      <point x="18" y="547" type="line"/>
      <point x="52.667" y="649.667"/>
      <point x="123.667" y="688"/>
      <point x="201" y="688" type="curve" smooth="yes"/>
      <point x="309" y="688"/>
      <point x="375" y="608.667"/>
      <point x="375" y="522" type="curve" smooth="yes"/>
      <point x="375" y="423.333"/>
      <point x="308" y="344.333"/>
      <point x="184" y="315" type="curve"/>
    </contour>
    <contour>
      <point x="174" y="20" type="curve" smooth="yes"/>
      <point x="174" y="1.333"/>
      <point x="182.667" y="-10"/>
      <point x="200" y="-10" type="curve" smooth="yes"/>
      <point x="217.333" y="-10"/>
      <point x="226" y="4"/>
      <point x="226" y="20" type="curve" smooth="yes"/>
      <point x="226" y="38.667"/>
      <point x="218.667" y="50"/>
      <point x="200" y="50" type="curve" smooth="yes"/>
      <point x="184" y="50"/>
      <point x="174" y="37.333"/>
    </contour>
  </outline>
</glyph>
<glyph name="at" format="2">
  <advance width="986"/>
  <unicode hex="0040"/>
  <outline>
    <contour>
      <point x="424" y="-162" type="curve" smooth="yes"/>
      <point x="505.333" y="-162"/>
      <point x="607.667" y="-133.667"/>
      <point x="677" y="-91" type="curve"/>
      <point x="665" y="-73" type="line"/>
      <point x="610" y="-108"/>
      <point x="494" y="-140"/>
      <point x="424" y="-140" type="curve" smooth="yes"/>
      <point x="222.667" y="-140"/>
      <point x="78" y="5.667"/>
      <point x="78" y="231" type="curve" smooth="yes"/>
      <point x="78" y="456.333"/>
      <point x="264.333" y="688"/>
      <point x="547" y="688" type="curve" smooth="yes"/>
      <point x="755" y="688"/>
      <point x="908" y="572.667"/>
      <point x="908" y="382" type="curve" smooth="yes"/>
      <point x="908" y="178"/>
      <point x="795.667" y="77"/>
      <point x="697" y="77" type="curve" smooth="yes"/>
      <point x="634" y="77"/>
      <point x="640" y="108"/>
      <point x="653" y="177" type="curve" smooth="yes"/>
      <point x="715.5" y="501" type="line"/>
      <point x="693.998" y="501" type="line"/>
      <point x="669" y="362" type="line"/>
      <point x="679" y="370" type="line"/>
      <point x="653" y="475"/>
      <point x="573.104" y="510"/>
      <point x="501" y="510" type="curve" smooth="yes"/>
      <point x="369" y="510"/>
      <point x="274" y="381"/>
      <point x="274" y="231" type="curve" smooth="yes"/>
      <point x="274" y="125.667"/>
      <point x="345.667" y="55"/>
      <point x="443" y="55" type="curve" smooth="yes"/>
      <point x="539" y="55"/>
      <point x="621.907" y="118.245"/>
      <point x="656" y="218" type="curve"/>
      <point x="646" y="229" type="line"/>
      <point x="630" y="184"/>
      <point x="621" y="155"/>
      <point x="621" y="128" type="curve" smooth="yes"/>
      <point x="621" y="90"/>
      <point x="638" y="55"/>
      <point x="699" y="55" type="curve" smooth="yes"/>
      <point x="812.333" y="55"/>
      <point x="931" y="177.333"/>
      <point x="931" y="384" type="curve" smooth="yes"/>
      <point x="931" y="573.333"/>
      <point x="772.667" y="710"/>
      <point x="546" y="710" type="curve" smooth="yes"/>
      <point x="254" y="710"/>
      <point x="55" y="482"/>
      <point x="55" y="224" type="curve" smooth="yes"/>
      <point x="55" y="-5.333"/>
      <point x="206.667" y="-162"/>
    </contour>
    <contour>
      <point x="445" y="77" type="curve" smooth="yes"/>
      <point x="357.147" y="77"/>
      <point x="297" y="141.333"/>
      <point x="297" y="232" type="curve" smooth="yes"/>
      <point x="297" y="382.667"/>
      <point x="397" y="488"/>
      <point x="501" y="488" type="curve" smooth="yes"/>
      <point x="607" y="488"/>
      <point x="662" y="403"/>
      <point x="662" y="335" type="curve" smooth="yes"/>
      <point x="662" y="327"/>
      <point x="660" y="312"/>
      <point x="659" y="305" type="curve" smooth="yes"/>
      <point x="637" y="158"/>
      <point x="556.479" y="77"/>
    </contour>
  </outline>
</glyph>
<glyph name="B" format="2">
  <advance width="652"/>
  <unicode hex="0042"/>
  <anchor x="326" y="0" name="bottom"/>
  <anchor x="326" y="700" name="top"/>
  <outline>
    <contour>
      <point x="110" y="0" type="line"/>
      <point x="371" y="0" type="line" smooth="yes"/>
      <point x="532.333" y="0"/>
      <point x="597" y="84"/>
      <point x="597" y="192" type="curve" smooth="yes"/>
      <point x="597" y="289"/>
      <point x="529" y="365"/>
      <point x="395" y="374" type="curve"/>
      <point x="401" y="361" type="line"/>
      <point x="497" y="376"/>
      <point x="560" y="446"/>
      <point x="560" y="531" type="curve" smooth="yes"/>
      <point x="560" y="624.333"/>
      <point x="488.667" y="700"/>
      <point x="378" y="700" type="curve" smooth="yes"/>
      <point x="110" y="700" type="line"/>
    </contour>
    <contour>
      <point x="131" y="22" type="line"/>
      <point x="131" y="356" type="line"/>
      <point x="377" y="356" type="line" smooth="yes"/>
      <point x="502.333" y="356"/>
      <point x="574" y="286.667"/>
      <point x="574" y="188" type="curve" smooth="yes"/>
      <point x="574" y="94.667"/>
      <point x="517.333" y="22"/>
      <point x="372" y="22" type="curve" smooth="yes"/>
    </contour>
    <contour>
      <point x="131" y="378" type="line"/>
      <point x="131" y="678" type="line"/>
      <point x="375" y="678" type="line" smooth="yes"/>
      <point x="475" y="678"/>
      <point x="537" y="613.333"/>
      <point x="537" y="532" type="curve" smooth="yes"/>
      <point x="537" y="446.667"/>
      <point x="462.667" y="378"/>
      <point x="372" y="378" type="curve" smooth="yes"/>
    </contour>
  </outline>
</glyph>
<glyph name="C" format="2">
  <advance width="690"/>
  <unicode hex="0043"/>
  <anchor x="387" y="0" name="bottom"/>
  <anchor x="399" y="700" name="top"/>
  <outline>
    <contour>
      <point x="399" y="-10" type="curve" smooth="yes"/>
      <point x="495" y="-10"/>
      <point x="579" y="23.667"/>
      <point x="639" y="81" type="curve"/>
      <point x="624" y="99" type="line"/>
      <point x="568" y="44.333"/>
      <point x="489.667" y="12"/>
      <point x="399" y="12" type="curve" smooth="yes"/>
      <point x="213.667" y="12"/>
      <point x="78" y="151.333"/>
      <point x="78" y="346" type="curve" smooth="yes"/>
      <point x="78" y="543.333"/>
      <point x="213.667" y="688"/>
      <point x="399" y="688" type="curve" smooth="yes"/>
      <point x="496.333" y="688"/>
      <point x="578.333" y="644.667"/>
      <point x="637" y="578" type="curve"/>
      <point x="655" y="594" type="line"/>
      <point x="592.333" y="664.667"/>
      <point x="504.333" y="710"/>
      <point x="399" y="710" type="curve" smooth="yes"/>
      <point x="197.667" y="710"/>
      <point x="55" y="558"/>
      <point x="55" y="346" type="curve" smooth="yes"/>
      <point x="55" y="136.667"/>
      <point x="197.667" y="-10"/>
    </contour>
  </outline>
</glyph>
<glyph name="I" format="2">
  <advance width="386"/>
  <unicode hex="0049"/>
  <anchor x="193" y="0" name="bottom"/>
  <anchor x="259" y="0" name="ogonek"/>
  <anchor x="193" y="700" name="top"/>
  <anchor x="20" y="700" name="topleft"/>
  <outline>
    <contour>
      <point x="50" y="0" type="line"/>
      <point x="336" y="0" type="line"/>
      <point x="336" y="22" type="line"/>
      <point x="204" y="22" type="line"/>
      <point x="204" y="678" type="line"/>
      <point x="336" y="678" type="line"/>
      <point x="336" y="700" type="line"/>
      <point x="50" y="700" type="line"/>
      <point x="50" y="678" type="line"/>
      <point x="182" y="678" type="line"/>
      <point x="182" y="22" type="line"/>
      <point x="50" y="22" type="line"/>
    </contour>
  </outline>
</glyph>
<glyph name="M" format="2">
  <advance width="839"/>
  <unicode hex="004D"/>
  <anchor x="420" y="0" name="bottom"/>
  <anchor x="420" y="700" name="top"/>
  <outline>
    <contour>
      <point x="110" y="0" type="line"/>
      <point x="132" y="0" type="line"/>
      <point x="132" y="545" type="line" smooth="yes"/>
      <point x="132" y="593.667"/>
      <point x="131" y="640"/>
      <point x="129" y="684" type="curve"/>
      <point x="119" y="672" type="line"/>
      <point x="412" y="204" type="line"/>
      <point x="427" y="204" type="line"/>
      <point x="725" y="679" type="line"/>
      <point x="709" y="684" type="line"/>
      <point x="707" y="637.333"/>
      <point x="706" y="590.333"/>
      <point x="706" y="543" type="curve" smooth="yes"/>
      <point x="706" y="0" type="line"/>
      <point x="728" y="0" type="line"/>
      <point x="728" y="700" type="line"/>
      <point x="711" y="700" type="line"/>
      <point x="418" y="232" type="line"/>
      <point x="421" y="232" type="line"/>
      <point x="127" y="700" type="line"/>
      <point x="110" y="700" type="line"/>
    </contour>
  </outline>
</glyph>
<glyph name="N" format="2">
  <advance width="731"/>
  <unicode hex="004E"/>
  <anchor x="366" y="0" name="bottom"/>
  <anchor x="366" y="700" name="top"/>
  <outline>
    <contour>
      <point x="110" y="0" type="line"/>
      <point x="132" y="0" type="line"/>
      <point x="132" y="470" type="line" smooth="yes"/>
      <point x="132" y="543"/>
      <point x="131.333" y="652.667"/>
      <point x="130" y="686" type="curve"/>
      <point x="115" y="686" type="line"/>
      <point x="600" y="0" type="line"/>
      <point x="620" y="0" type="line"/>
      <point x="620" y="700" type="line"/>
      <point x="598" y="700" type="line"/>
      <point x="598" y="241" type="line" smooth="yes"/>
      <point x="598" y="92"/>
      <point x="599" y="60"/>
      <point x="601" y="31" type="curve"/>
      <point x="605" y="31" type="line"/>
      <point x="132" y="700" type="line"/>
      <point x="110" y="700" type="line"/>
    </contour>
  </outline>
</glyph>
<glyph name="P" format="2">
  <advance width="600"/>
  <unicode hex="0050"/>
  <anchor x="300" y="0" name="bottom"/>
  <anchor x="300" y="700" name="top"/>
  <outline>
    <contour>
      <point x="110" y="0" type="line"/>
      <point x="132" y="0" type="line"/>
      <point x="132" y="291" type="line"/>
      <point x="361" y="291" type="line" smooth="yes"/>
      <point x="471.667" y="291"/>
      <point x="545" y="379"/>
      <point x="545" y="507" type="curve" smooth="yes"/>
      <point x="545" y="621.667"/>
      <point x="471.667" y="700"/>
      <point x="361" y="700" type="curve" smooth="yes"/>
      <point x="110" y="700" type="line"/>
    </contour>
    <contour>
      <point x="132" y="313" type="line"/>
      <point x="132" y="678" type="line"/>
      <point x="367" y="678" type="line" smooth="yes"/>
      <point x="460.333" y="678"/>
      <point x="522" y="607"/>
      <point x="522" y="507" type="curve" smooth="yes"/>
      <point x="522" y="392.333"/>
      <point x="460.333" y="313"/>
      <point x="367" y="313" type="curve" smooth="yes"/>
    </contour>
  </outline>
</glyph>
<glyph name="Q" format="2">
  <advance width="798"/>
  <unicode hex="0051"/>
  <anchor x="399" y="0" name="bottom"/>
  <anchor x="399" y="700" name="top"/>
  <anchor x="399" y="350" name="center"/>
  <anchor x="486" y="0" name="ogonek"/>
  <anchor x="20" y="700" name="topleft"/>
  <anchor x="778" y="700" name="topright"/>
  <outline>
    <contour>
      <point x="652" y="-78" type="line"/>
      <point x="669" y="-65" type="line"/>
      <point x="416" y="272" type="line"/>
      <point x="398" y="260" type="line"/>
    </contour>
    <component base="O"/>
  </outline>
</glyph>
<glyph name="U" format="2">
  <advance width="744"/>
  <unicode hex="0055"/>
  <anchor x="372" y="0" name="bottom"/>
  <anchor x="523" y="-6" name="ogonek"/>
  <anchor x="372" y="700" name="top"/>
  <anchor x="724" y="700" name="topright"/>
  <outline>
    <contour>
      <point x="368" y="-6" type="curve" smooth="yes"/>
      <point x="522.667" y="-6"/>
      <point x="634" y="109"/>
      <point x="634" y="269" type="curve" smooth="yes"/>
      <point x="634" y="700" type="line"/>
      <point x="612" y="700" type="line"/>
      <point x="612" y="278" type="line" smooth="yes"/>
      <point x="612" y="124.667"/>
      <point x="512" y="16"/>
      <point x="368" y="16" type="curve" smooth="yes"/>
      <point x="228" y="16"/>
      <point x="132" y="124.667"/>
      <point x="132" y="278" type="curve" smooth="yes"/>
      <point x="132" y="700" type="line"/>
      <point x="110" y="700" type="line"/>
      <point x="110" y="269" type="line" smooth="yes"/>
      <point x="110" y="109"/>
      <point x="217.333" y="-6"/>
    </contour>
  </outline>
</glyph>
<glyph name="W" format="2">
  <advance width="849"/>
  <unicode hex="0057"/>
  <anchor x="425" y="0" name="bottom"/>
  <anchor x="425" y="700" name="top"/>
  <outline>
    <contour>
      <point x="216" y="0" type="line"/>
      <point x="242" y="0" type="line"/>
      <point x="434" y="499" type="line"/>
      <point x="415" y="499" type="line"/>
      <point x="607" y="0" type="line"/>
      <point x="633" y="0" type="line"/>
      <point x="829" y="700" type="line"/>
      <point x="805" y="700" type="line"/>
      <point x="663" y="193" type="line" smooth="yes"/>
      <point x="633" y="84"/>
      <point x="644" y="123"/>
      <point x="612" y="15" type="curve"/>
      <point x="625" y="15" type="line"/>
      <point x="569.338" y="154.037"/>
      <point x="559.671" y="178.829"/>
      <point x="551" y="202" type="curve" smooth="yes"/>
      <point x="432" y="520" type="line"/>
      <point x="417" y="520" type="line"/>
      <point x="297" y="202" type="line" smooth="yes"/>
      <point x="279.453" y="155.5"/>
      <point x="263.641" y="112.783"/>
      <point x="224" y="15" type="curve"/>
      <point x="236" y="15" type="line"/>
      <point x="212" y="95"/>
      <point x="208" y="113"/>
      <point x="186" y="193" type="curve" smooth="yes"/>
      <point x="44" y="700" type="line"/>
      <point x="20" y="700" type="line"/>
    </contour>
  </outline>
</glyph>
<glyph name="Z" format="2">
  <advance width="634"/>
  <unicode hex="005A"/>
  <anchor x="317" y="0" name="bottom"/>
  <anchor x="317" y="350" name="center"/>
  <anchor x="317" y="700" name="top"/>
  <outline>
    <contour>
      <point x="60" y="0" type="line"/>
      <point x="574" y="0" type="line"/>
      <point x="574" y="22" type="line"/>
      <point x="75" y="22" type="line"/>
      <point x="78" y="10" type="line"/>
      <point x="563" y="677.499" type="line"/>
      <point x="563" y="700" type="line"/>
      <point x="86" y="700" type="line"/>
      <point x="86" y="678" type="line"/>
      <point x="557" y="678" type="line"/>
      <point x="545" y="692" type="line"/>
      <point x="60" y="23.501" type="line"/>
    </contour>
  </outline>
</glyph>
<glyph name="bracketleft" format="2">
  <advance width="319"/>
  <unicode hex="005B"/>
  <outline>
    <contour>
      <point x="75" y="-190" type="line"/>
      <point x="287" y="-190" type="line"/>
      <point x="287" y="-168" type="line"/>
      <point x="87" y="-168" type="line"/>
      <point x="98" y="-180" type="line"/>
      <point x="98" y="686" type="line"/>
      <point x="88" y="678" type="line"/>
      <point x="287" y="678" type="line"/>
      <point x="287" y="700" type="line"/>
      <point x="75" y="700" type="line"/>
    </contour>
  </outline>
</glyph>
<glyph name="backslash" format="2">
  <advance width="521"/>
  <unicode hex="005C"/>
  <outline>
    <contour>
      <point x="431" y="-95" type="line"/>
      <point x="457" y="-95" type="line"/>
      <point x="63" y="700" type="line"/>
      <point x="37" y="700" type="line"/>
    </contour>
  </outline>
</glyph>
<glyph name="b" format="2">
  <advance width="602"/>
  <unicode hex="0062"/>
  <anchor x="301" y="0" name="bottom"/>
  <anchor x="301" y="740" name="top"/>
  <outline>
    <contour>
      <point x="312" y="-10" type="curve" smooth="yes"/>
      <point x="449.333" y="-10"/>
      <point x="562" y="104.667"/>
      <point x="562" y="262" type="curve" smooth="yes"/>
      <point x="562" y="418"/>
      <point x="454.667" y="530"/>
      <point x="308" y="530" type="curve" smooth="yes"/>
      <point x="200" y="530"/>
      <point x="109.667" y="453"/>
      <point x="83" y="345" type="curve"/>
      <point x="92" y="348" type="line"/>
      <point x="92" y="740" type="line"/>
      <point x="70" y="740" type="line"/>
      <point x="70" y="0" type="line"/>
      <point x="90" y="0" type="line"/>
      <point x="92" y="167" type="line"/>
      <point x="86" y="170" type="line"/>
      <point x="104.667" y="67.333"/>
      <point x="205.333" y="-10"/>
    </contour>
    <contour>
      <point x="311" y="12" type="curve" smooth="yes"/>
      <point x="185.667" y="12"/>
      <point x="92" y="116"/>
      <point x="92" y="260" type="curve" smooth="yes"/>
      <point x="92" y="406.667"/>
      <point x="186.333" y="508"/>
      <point x="309" y="508" type="curve" smooth="yes"/>
      <point x="446.333" y="508"/>
      <point x="540" y="403.333"/>
      <point x="540" y="262" type="curve" smooth="yes"/>
      <point x="540" y="116.667"/>
      <point x="445.667" y="12"/>
    </contour>
  </outline>
</glyph>
<glyph name="f" format="2">
  <advance width="340"/>
  <unicode hex="0066"/>
  <anchor x="170" y="0" name="bottom"/>
  <anchor x="170" y="740" name="top"/>
  <outline>
    <contour>
      <point x="140" y="0" type="line"/>
      <point x="144" y="0"/>
      <point x="148.667" y="0"/>
      <point x="154" y="0" type="curve" smooth="yes"/>
      <point x="162" y="0" type="line"/>
      <point x="162" y="625" type="line" smooth="yes"/>
      <point x="162" y="703.667"/>
      <point x="195" y="728"/>
      <point x="243" y="728" type="curve" smooth="yes"/>
      <point x="277.667" y="728"/>
      <point x="302.616" y="720.281"/>
      <point x="326" y="693" type="curve"/>
      <point x="340" y="708" type="line"/>
      <point x="321.333" y="733.333"/>
      <point x="293" y="750"/>
      <point x="245" y="750" type="curve" smooth="yes"/>
      <point x="182.333" y="750"/>
      <point x="140" y="714"/>
      <point x="140" y="626" type="curve" smooth="yes"/>
    </contour>
    <contour>
      <point x="30" y="503" type="line"/>
      <point x="314" y="503" type="line"/>
      <point x="314" y="525" type="line"/>
      <point x="30" y="525" type="line"/>
    </contour>
  </outline>
</glyph>
<glyph name="g" format="2">
  <advance width="603"/>
  <unicode hex="0067"/>
  <anchor x="302" y="-230" name="bottom"/>
  <anchor x="292" y="525" name="top"/>
  <outline>
    <contour>
      <point x="294" y="-240" type="curve" smooth="yes"/>
      <point x="424.667" y="-240"/>
      <point x="532" y="-141.667"/>
      <point x="532" y="21" type="curve" smooth="yes"/>
      <point x="532" y="525" type="line"/>
      <point x="512" y="525" type="line"/>
      <point x="510" y="353" type="line"/>
      <point x="516" y="350" type="line"/>
      <point x="497.333" y="452.667"/>
      <point x="396.667" y="530"/>
      <point x="290" y="530" type="curve" smooth="yes"/>
      <point x="152.667" y="530"/>
      <point x="40" y="415.333"/>
      <point x="40" y="258" type="curve" smooth="yes"/>
      <point x="40" y="102"/>
      <point x="147.333" y="-10"/>
      <point x="294" y="-10" type="curve" smooth="yes"/>
      <point x="402" y="-10"/>
      <point x="492.333" y="67"/>
      <point x="519" y="175" type="curve"/>
      <point x="510" y="172" type="line"/>
      <point x="510" y="30" type="line" smooth="yes"/>
      <point x="510" y="-123.333"/>
      <point x="407.667" y="-218"/>
      <point x="293" y="-218" type="curve" smooth="yes"/>
      <point x="222.333" y="-218"/>
      <point x="165.333" y="-190"/>
      <point x="124" y="-146" type="curve"/>
      <point x="113" y="-166" type="line"/>
      <point x="155.667" y="-214"/>
      <point x="222" y="-240"/>
    </contour>
    <contour>
      <point x="293" y="12" type="curve" smooth="yes"/>
      <point x="157" y="12"/>
      <point x="62" y="116.667"/>
      <point x="62" y="258" type="curve" smooth="yes"/>
      <point x="62" y="403.333"/>
      <point x="156.333" y="508"/>
      <point x="291" y="508" type="curve" smooth="yes"/>
      <point x="416.333" y="508"/>
      <point x="510" y="404"/>
      <point x="510" y="260" type="curve" smooth="yes"/>
      <point x="510" y="113.333"/>
      <point x="415.667" y="12"/>
    </contour>
  </outline>
</glyph>
<glyph name="h" format="2">
  <advance width="541"/>
  <unicode hex="0068"/>
  <guideline x="115" y="638" angle="0"/>
  <anchor x="271" y="0" name="bottom"/>
  <anchor x="118" y="638" name="center"/>
  <anchor x="271" y="740" name="top"/>
  <outline>
    <contour>
      <point x="70" y="0" type="line"/>
      <point x="74.667" y="0"/>
      <point x="78.167" y="0"/>
      <point x="80.5" y="0" type="curve" smooth="yes"/>
      <point x="92" y="0" type="line"/>
      <point x="92" y="376" type="line" smooth="yes"/>
      <point x="92" y="417.333"/>
      <point x="172.667" y="508"/>
      <point x="286" y="508" type="curve" smooth="yes"/>
      <point x="391.333" y="508"/>
      <point x="451" y="454.667"/>
      <point x="451" y="328" type="curve" smooth="yes"/>
      <point x="451" y="0" type="line"/>
      <point x="473" y="0" type="line"/>
      <point x="473" y="328" type="line" smooth="yes"/>
      <point x="473" y="469.333"/>
      <point x="405.333" y="530"/>
      <point x="288" y="530" type="curve" smooth="yes"/>
      <point x="192" y="530"/>
      <point x="105.667" y="471.333"/>
      <point x="83" y="402" type="curve"/>
      <point x="92" y="404" type="line"/>
      <point x="92" y="740" type="line"/>
      <point x="70" y="740" type="line"/>
    </contour>
  </outline>
</glyph>
<glyph name="m" format="2">
  <advance width="877"/>
  <unicode hex="006D"/>
  <anchor x="439" y="0" name="bottom"/>
  <anchor x="439" y="525" name="top"/>
  <outline>
    <contour>
      <point x="65" y="0" type="line"/>
      <point x="87" y="0" type="line"/>
      <point x="87" y="376" type="line" smooth="yes"/>
      <point x="87" y="417.333"/>
      <point x="164.667" y="508"/>
      <point x="274" y="508" type="curve" smooth="yes"/>
      <point x="375.333" y="508"/>
      <point x="432" y="454.667"/>
      <point x="432" y="328" type="curve" smooth="yes"/>
      <point x="432" y="0" type="line"/>
      <point x="454" y="0" type="line"/>
      <point x="454" y="364" type="line" smooth="yes"/>
      <point x="454" y="428"/>
      <point x="530" y="508"/>
      <point x="634" y="508" type="curve" smooth="yes"/>
      <point x="735.333" y="508"/>
      <point x="792" y="454.667"/>
      <point x="792" y="328" type="curve" smooth="yes"/>
      <point x="792" y="0" type="line"/>
      <point x="814" y="0" type="line"/>
      <point x="814" y="328" type="line" smooth="yes"/>
      <point x="814" y="469.333"/>
      <point x="749.333" y="530"/>
      <point x="636" y="530" type="curve" smooth="yes"/>
      <point x="553.333" y="530"/>
      <point x="475.667" y="487.333"/>
      <point x="441" y="406" type="curve" smooth="yes"/>
      <point x="435" y="389" type="line"/>
      <point x="447" y="395" type="line"/>
      <point x="425.667" y="495"/>
      <point x="361.333" y="530"/>
      <point x="276" y="530" type="curve" smooth="yes"/>
      <point x="193.333" y="530"/>
      <point x="122.333" y="492"/>
      <point x="73" y="396" type="curve"/>
      <point x="88" y="393" type="line"/>
      <point x="85" y="525" type="line"/>
      <point x="65" y="525" type="line"/>
    </contour>
  </outline>
</glyph>
<glyph name="o" format="2">
  <advance width="615"/>
  <unicode hex="006F"/>
  <anchor x="308" y="0" name="bottom"/>
  <anchor x="308" y="263" name="center"/>
  <anchor x="458" y="0" name="ogonek"/>
  <anchor x="308" y="525" name="top"/>
  <anchor x="595" y="525" name="topright"/>
  <outline>
    <contour>
      <point x="308" y="-10" type="curve" smooth="yes"/>
      <point x="466.667" y="-10"/>
      <point x="575" y="104.333"/>
      <point x="575" y="263" type="curve" smooth="yes"/>
      <point x="575" y="419"/>
      <point x="466.667" y="530"/>
      <point x="308" y="530" type="curve" smooth="yes"/>
      <point x="150.667" y="530"/>
      <point x="40" y="419"/>
      <point x="40" y="263" type="curve" smooth="yes"/>
      <point x="40" y="104.333"/>
      <point x="150.667" y="-10"/>
    </contour>
    <contour>
      <point x="308" y="12" type="curve" smooth="yes"/>
      <point x="165.333" y="12"/>
      <point x="62" y="116.333"/>
      <point x="62" y="263" type="curve" smooth="yes"/>
      <point x="62" y="404.333"/>
      <point x="165.333" y="508"/>
      <point x="308" y="508" type="curve" smooth="yes"/>
      <point x="449.333" y="508"/>
      <point x="553" y="404.333"/>
      <point x="553" y="263" type="curve" smooth="yes"/>
      <point x="553" y="116.333"/>
      <point x="449.333" y="12"/>
    </contour>
  </outline>
</glyph>
<glyph name="s" format="2">
  <advance width="479"/>
  <unicode hex="0073"/>
  <anchor x="250" y="0" name="bottom"/>
  <anchor x="240" y="525" name="top"/>
  <outline>
    <contour>
      <point x="248" y="-10" type="curve" smooth="yes"/>
      <point x="358.667" y="-10"/>
      <point x="425" y="46.333"/>
      <point x="425" y="133" type="curve" smooth="yes"/>
      <point x="425" y="174"/>
      <point x="410" y="204"/>
      <point x="379" y="227" type="curve" smooth="yes"/>
      <point x="349" y="249"/>
      <point x="305" y="265"/>
      <point x="245" y="279" type="curve" smooth="yes"/>
      <point x="187" y="292"/>
      <point x="143" y="309"/>
      <point x="117" y="332" type="curve" smooth="yes"/>
      <point x="96" y="349"/>
      <point x="87" y="371"/>
      <point x="87" y="394" type="curve" smooth="yes"/>
      <point x="87" y="459.912"/>
      <point x="142.667" y="508"/>
      <point x="240" y="508" type="curve" smooth="yes"/>
      <point x="306.667" y="508"/>
      <point x="361.779" y="477.724"/>
      <point x="406" y="427" type="curve"/>
      <point x="422" y="445" type="line"/>
      <point x="375.037" y="499.789"/>
      <point x="310.667" y="530"/>
      <point x="240" y="530" type="curve" smooth="yes"/>
      <point x="133.333" y="530"/>
      <point x="65" y="475.635"/>
      <point x="65" y="393" type="curve" smooth="yes"/>
      <point x="65" y="361"/>
      <point x="78" y="335"/>
      <point x="105" y="313" type="curve" smooth="yes"/>
      <point x="134" y="289"/>
      <point x="181" y="270"/>
      <point x="241" y="256" type="curve" smooth="yes"/>
      <point x="294" y="244"/>
      <point x="334" y="230"/>
      <point x="361" y="210" type="curve" smooth="yes"/>
      <point x="389" y="191"/>
      <point x="403" y="166"/>
      <point x="403" y="133" type="curve" smooth="yes"/>
      <point x="403" y="70.333"/>
      <point x="358" y="12"/>
      <point x="250" y="12" type="curve" smooth="yes"/>
      <point x="164.667" y="12"/>
      <point x="99.333" y="46.667"/>
      <point x="62" y="96" type="curve"/>
      <point x="45" y="81" type="line"/>
      <point x="83.667" y="26.333"/>
      <point x="160" y="-10"/>
    </contour>
  </outline>
</glyph>
<glyph name="v" format="2">
  <advance width="467"/>
  <unicode hex="0076"/>
  <anchor x="234" y="0" name="bottom"/>
  <anchor x="234" y="525" name="top"/>
  <outline>
    <contour>
      <point x="226" y="0" type="line"/>
      <point x="241" y="0" type="line"/>
      <point x="452" y="525" type="line"/>
      <point x="427" y="525" type="line"/>
      <point x="227" y="24" type="line"/>
      <point x="240" y="24" type="line"/>
      <point x="40" y="525" type="line"/>
      <point x="15" y="525" type="line"/>
    </contour>
  </outline>
</glyph>
<glyph name="x" format="2">
  <advance width="475"/>
  <unicode hex="0078"/>
  <anchor x="238" y="0" name="bottom"/>
  <anchor x="238" y="525" name="top"/>
  <outline>
    <contour>
      <point x="435" y="0" type="line"/>
      <point x="465" y="0" type="line"/>
      <point x="246" y="273" type="line"/>
      <point x="239" y="281" type="line"/>
      <point x="52" y="525" type="line"/>
      <point x="22" y="525" type="line"/>
      <point x="227" y="260" type="line"/>
      <point x="230" y="255" type="line"/>
    </contour>
    <contour>
      <point x="10" y="0" type="line"/>
      <point x="40" y="0" type="line"/>
      <point x="244" y="257" type="line"/>
      <point x="228" y="272" type="line"/>
    </contour>
    <contour>
      <point x="247" y="261" type="line"/>
      <point x="452" y="525" type="line"/>
      <point x="422" y="525" type="line"/>
      <point x="235" y="281" type="line"/>
    </contour>
  </outline>
</glyph>
<glyph name="braceright" format="2">
  <advance width="402"/>
  <unicode hex="007D"/>
  <outline>
    <contour>
      <point x="59" y="-186" type="line"/>
      <point x="147" y="-166"/>
      <point x="201" y="-110"/>
      <point x="201" y="-7" type="curve" smooth="yes"/>
      <point x="199" y="88" type="line" smooth="yes"/>
      <point x="199" y="183"/>
      <point x="240" y="236"/>
      <point x="319" y="237" type="curve" smooth="yes"/>
      <point x="339" y="237" type="line"/>
      <point x="339" y="263" type="line"/>
      <point x="319" y="263" type="line" smooth="yes"/>
      <point x="242" y="264"/>
      <point x="199" y="319"/>
      <point x="199" y="412" type="curve" smooth="yes"/>
      <point x="201" y="507" type="line" smooth="yes"/>
      <point x="201" y="610"/>
      <point x="147" y="666"/>
      <point x="59" y="686" type="curve"/>
      <point x="53" y="667" type="line"/>
      <point x="145" y="643"/>
      <point x="179" y="597"/>
      <point x="179" y="493" type="curve" smooth="yes"/>
      <point x="177" y="398" type="line" smooth="yes"/>
      <point x="177" y="322"/>
      <point x="206" y="271"/>
      <point x="267" y="248" type="curve"/>
      <point x="267" y="251" type="line"/>
      <point x="207" y="232"/>
      <point x="177" y="179"/>
      <point x="177" y="102" type="curve" smooth="yes"/>
      <point x="179" y="7" type="line" smooth="yes"/>
      <point x="179" y="-97"/>
      <point x="145" y="-143"/>
      <point x="53" y="-167" type="curve"/>
    </contour>
  </outline>
</glyph>
<glyph name="sterling" format="2">
  <advance width="610"/>
  <unicode hex="00A3"/>
  <outline>
    <contour>
      <point x="168" y="47" type="line"/>
      <point x="217.287" y="99.893"/>
      <point x="230" y="147"/>
      <point x="230" y="202" type="curve" smooth="yes"/>
      <point x="230" y="256"/>
      <point x="219" y="297"/>
      <point x="200" y="353" type="curve" smooth="yes"/>
      <point x="185" y="398"/>
      <point x="167" y="454"/>
      <point x="167" y="501" type="curve" smooth="yes"/>
      <point x="167" y="601"/>
      <point x="238.667" y="673"/>
      <point x="340" y="673" type="curve" smooth="yes"/>
      <point x="398.667" y="673"/>
      <point x="441.667" y="658.333"/>
      <point x="491" y="597" type="curve"/>
      <point x="509" y="611" type="line"/>
      <point x="470.333" y="665.667"/>
      <point x="420" y="695"/>
      <point x="340" y="695" type="curve" smooth="yes"/>
      <point x="220" y="695"/>
      <point x="144" y="616.667"/>
      <point x="144" y="502" type="curve" smooth="yes"/>
      <point x="144" y="466"/>
      <point x="146.999" y="434.667"/>
      <point x="173" y="352" type="curve" smooth="yes"/>
      <point x="199.837" y="271.487"/>
      <point x="207" y="238.333"/>
      <point x="207" y="201" type="curve" smooth="yes"/>
      <point x="207" y="137.457"/>
      <point x="180" y="79.333"/>
      <point x="148" y="62" type="curve"/>
    </contour>
    <contour>
      <point x="447" y="-5" type="curve" smooth="yes"/>
      <point x="488.333" y="-5"/>
      <point x="526.166" y="9.667"/>
      <point x="561.501" y="31" type="curve"/>
      <point x="548" y="49" type="line"/>
      <point x="513.333" y="27.667"/>
      <point x="479.557" y="17"/>
      <point x="447" y="17" type="curve" smooth="yes"/>
      <point x="409" y="17"/>
      <point x="372" y="27"/>
      <point x="334" y="39" type="curve" smooth="yes"/>
      <point x="262.588" y="61.404"/>
      <point x="231.344" y="69"/>
      <point x="199" y="69" type="curve" smooth="yes"/>
      <point x="145.723" y="69"/>
      <point x="102.993" y="51.216"/>
      <point x="62" y="32" type="curve"/>
      <point x="73" y="13" type="line"/>
      <point x="117" y="33"/>
      <point x="161.667" y="47"/>
      <point x="199" y="47" type="curve" smooth="yes"/>
      <point x="209" y="47"/>
      <point x="277.667" y="30.833"/>
      <point x="313" y="20.5" type="curve" smooth="yes"/>
      <point x="359" y="7"/>
      <point x="404" y="-5"/>
    </contour>
    <contour>
      <point x="59" y="353" type="line"/>
      <point x="437" y="353" type="line"/>
      <point x="437" y="375" type="line"/>
      <point x="59" y="375" type="line"/>
    </contour>
  </outline>
</glyph>
<glyph name="currency" format="2">
  <advance width="563"/>
  <unicode hex="00A4"/>
  <outline>
    <contour>
      <point x="279" y="122" type="curve" smooth="yes"/>
      <point x="377.667" y="122"/>
      <point x="457" y="200.667"/>
      <point x="457" y="302" type="curve" smooth="yes"/>
      <point x="457" y="402"/>
      <point x="376.333" y="482"/>
      <point x="279" y="482" type="curve" smooth="yes"/>
      <point x="180.333" y="482"/>
      <point x="101" y="403.333"/>
      <point x="101" y="302" type="curve" smooth="yes"/>
      <point x="101" y="200.667"/>
      <point x="180.333" y="122"/>
    </contour>
    <contour>
      <point x="95" y="110" type="line"/>
      <point x="167" y="178" type="line"/>
      <point x="151" y="193" type="line"/>
      <point x="80" y="127" type="line"/>
    </contour>
    <contour>
      <point x="151" y="413" type="line"/>
      <point x="167" y="428" type="line"/>
      <point x="95" y="496" type="line"/>
      <point x="80" y="479" type="line"/>
    </contour>
    <contour>
      <point x="279" y="144" type="curve" smooth="yes"/>
      <point x="188.333" y="144"/>
      <point x="123" y="211.333"/>
      <point x="123" y="302" type="curve" smooth="yes"/>
      <point x="123" y="392.667"/>
      <point x="188.333" y="460"/>
      <point x="279" y="460" type="curve" smooth="yes"/>
      <point x="371" y="460"/>
      <point x="435" y="392.667"/>
      <point x="435" y="302" type="curve" smooth="yes"/>
      <point x="435" y="211.333"/>
      <point x="371" y="144"/>
    </contour>
    <contour>
      <point x="463" y="110" type="line"/>
      <point x="478" y="127" type="line"/>
      <point x="407" y="193" type="line"/>
      <point x="391" y="178" type="line"/>
    </contour>
    <contour>
      <point x="407" y="413" type="line"/>
      <point x="478" y="479" type="line"/>
      <point x="463" y="496" type="line"/>
      <point x="391" y="428" type="line"/>
    </contour>
  </outline>
</glyph>
<glyph name="yen" format="2">
  <advance width="592"/>
  <unicode hex="00A5"/>
  <outline>
    <contour>
      <point x="289" y="0" type="line"/>
      <point x="311" y="0" type="line"/>
      <point x="311" y="339" type="line"/>
      <point x="302" y="300" type="line"/>
      <point x="572" y="700" type="line"/>
      <point x="545" y="700" type="line"/>
      <point x="294" y="327" type="line"/>
      <point x="305" y="327" type="line"/>
      <point x="47" y="700" type="line"/>
      <point x="20" y="700" type="line"/>
      <point x="297" y="300" type="line"/>
      <point x="289" y="339" type="line"/>
    </contour>
    <contour>
      <point x="131" y="149" type="line"/>
      <point x="469" y="149" type="line"/>
      <point x="469" y="171" type="line"/>
      <point x="131" y="171" type="line"/>
    </contour>
    <contour>
      <point x="131" y="299" type="line"/>
      <point x="469" y="299" type="line"/>
      <point x="469" y="321" type="line"/>
      <point x="131" y="321" type="line"/>
    </contour>
  </outline>
</glyph>
<glyph name="logicalnot" format="2">
  <advance width="670"/>
  <unicode hex="00AC"/>
  <outline>
    <contour>
      <point x="583" y="117" type="line"/>
      <point x="605" y="117" type="line"/>
      <point x="605" y="389" type="line"/>
      <point x="65" y="389" type="line"/>
      <point x="65" y="367" type="line"/>
      <point x="594" y="367" type="line"/>
      <point x="583" y="379" type="line"/>
    </contour>
  </outline>
</glyph>
<glyph name="registered" format="2">
  <advance width="525"/>
  <unicode hex="00AE"/>
  <outline>
    <contour>
      <point x="259" y="257" type="curve" smooth="yes"/>
      <point x="387" y="257"/>
      <point x="490" y="357.667"/>
      <point x="490" y="483" type="curve" smooth="yes"/>
      <point x="490" y="608.333"/>
      <point x="387" y="709"/>
      <point x="259" y="709" type="curve" smooth="yes"/>
      <point x="133.667" y="709"/>
      <point x="28" y="608.333"/>
      <point x="28" y="483" type="curve" smooth="yes"/>
      <point x="28" y="357.667"/>
      <point x="132.333" y="257"/>
    </contour>
    <contour>
      <point x="259" y="277" type="curve" smooth="yes"/>
      <point x="144.333" y="277"/>
      <point x="48" y="367.773"/>
      <point x="48" y="483" type="curve" smooth="yes"/>
      <point x="48" y="599"/>
      <point x="143.787" y="689"/>
      <point x="259" y="689" type="curve" smooth="yes"/>
      <point x="375.552" y="689"/>
      <point x="470" y="599"/>
      <point x="470" y="483" type="curve" smooth="yes"/>
      <point x="470" y="368.333"/>
      <point x="375.552" y="277"/>
    </contour>
    <contour>
      <point x="314" y="367" type="line"/>
      <point x="337" y="367" type="line"/>
      <point x="292" y="479" type="line"/>
      <point x="273" y="471" type="line"/>
    </contour>
    <contour>
      <point x="191" y="367" type="line"/>
      <point x="211" y="367" type="line"/>
      <point x="211" y="469" type="line"/>
      <point x="204" y="464" type="line"/>
      <point x="268" y="464" type="line" smooth="yes"/>
      <point x="312" y="464"/>
      <point x="345" y="492"/>
      <point x="345" y="532" type="curve" smooth="yes"/>
      <point x="345" y="576"/>
      <point x="314.667" y="606"/>
      <point x="268" y="606" type="curve" smooth="yes"/>
      <point x="191" y="606" type="line"/>
    </contour>
    <contour>
      <point x="211" y="478" type="line"/>
      <point x="211" y="594" type="line"/>
      <point x="200" y="586" type="line"/>
      <point x="265" y="586" type="line" smooth="yes"/>
      <point x="305" y="586"/>
      <point x="324" y="566.333"/>
      <point x="324" y="533" type="curve" smooth="yes"/>
      <point x="324" y="505"/>
      <point x="299" y="484"/>
      <point x="263" y="484" type="curve" smooth="yes"/>
      <point x="204" y="484" type="line"/>
    </contour>
  </outline>
</glyph>
<glyph name="plusminus" format="2">
  <advance width="606"/>
  <unicode hex="00B1"/>
  <outline>
    <contour>
      <point x="65" y="346" type="line"/>
      <point x="541" y="346" type="line"/>
      <point x="541" y="368" type="line"/>
      <point x="65" y="368" type="line"/>
    </contour>
    <contour>
      <point x="65" y="68" type="line"/>
      <point x="541" y="68" type="line"/>
      <point x="541" y="90" type="line"/>
      <point x="65" y="90" type="line"/>
    </contour>
    <contour>
      <point x="291" y="183" type="line"/>
      <point x="314" y="183" type="line"/>
      <point x="314" y="525" type="line"/>
      <point x="291" y="525" type="line"/>
    </contour>
  </outline>
</glyph>
<glyph name="paragraph" format="2">
  <advance width="570"/>
  <unicode hex="00B6"/>
  <outline>
    <contour>
      <point x="297" y="0" type="line"/>
      <point x="319" y="0" type="line"/>
      <point x="319" y="690" type="line"/>
      <point x="308" y="678" type="line"/>
      <point x="448" y="678" type="line"/>
      <point x="437" y="690" type="line"/>
      <point x="437" y="0" type="line"/>
      <point x="459" y="0" type="line"/>
      <point x="459" y="700" type="line"/>
      <point x="280" y="700" type="line" smooth="yes"/>
      <point x="144" y="700"/>
      <point x="55" y="615.333"/>
      <point x="55" y="486" type="curve" smooth="yes"/>
      <point x="55" y="366"/>
      <point x="135" y="279"/>
      <point x="243" y="279" type="curve" smooth="yes"/>
      <point x="308" y="279" type="line"/>
      <point x="297" y="291" type="line"/>
    </contour>
  </outline>
</glyph>
<glyph name="Eth" format="2">
  <advance width="737"/>
  <unicode hex="00D0"/>
  <anchor x="369" y="0" name="bottom"/>
  <anchor x="158" y="350" name="center"/>
  <anchor x="369" y="700" name="top"/>
  <outline>
    <contour>
      <point x="24" y="339" type="line"/>
      <point x="292" y="339" type="line"/>
      <point x="292" y="360" type="line"/>
      <point x="24" y="360" type="line"/>
    </contour>
    <component base="D"/>
  </outline>
</glyph>
<glyph name="Oslash" format="2">
  <advance width="798"/>
  <unicode hex="00D8"/>
  <anchor x="399" y="0" name="bottom"/>
  <anchor x="399" y="700" name="top"/>
  <anchor x="398" y="350" name="center"/>
  <anchor x="485" y="0" name="ogonek"/>
  <anchor x="19" y="700" name="topleft"/>
  <anchor x="777" y="700" name="topright"/>
  <outline>
    <contour>
      <point x="114" y="-18" type="line"/>
      <point x="703" y="704" type="line"/>
      <point x="684" y="718" type="line"/>
      <point x="95" y="-4" type="line"/>
    </contour>
    <component base="O" xOffset="-1"/>
  </outline>
</glyph>
<glyph name="germandbls" format="2">
  <advance width="606"/>
  <unicode hex="00DF"/>
  <anchor x="303" y="0" name="bottom"/>
  <anchor x="303" y="525" name="top"/>
  <outline>
    <contour>
      <point x="354" y="-10" type="curve" smooth="yes"/>
      <point x="484.667" y="-8.667"/>
      <point x="552" y="56.667"/>
      <point x="552" y="186" type="curve" smooth="yes"/>
      <point x="552" y="282"/>
      <point x="493.333" y="373.333"/>
      <point x="308" y="432" type="curve"/>
      <point x="308" y="420" type="line"/>
      <point x="401.333" y="420"/>
      <point x="479" y="485"/>
      <point x="479" y="577" type="curve" smooth="yes"/>
      <point x="479" y="661"/>
      <point x="416.667" y="728"/>
      <point x="306" y="728" type="curve" smooth="yes"/>
      <point x="188.667" y="728"/>
      <point x="116" y="650"/>
      <point x="116" y="494" type="curve" smooth="yes"/>
      <point x="116" y="0" type="line"/>
      <point x="138" y="0" type="line"/>
      <point x="138" y="493" type="line" smooth="yes"/>
      <point x="138" y="637"/>
      <point x="200.333" y="706"/>
      <point x="311" y="706" type="curve" smooth="yes"/>
      <point x="399" y="706"/>
      <point x="456" y="649"/>
      <point x="456" y="577" type="curve" smooth="yes"/>
      <point x="456" y="499.667"/>
      <point x="394.667" y="442.333"/>
      <point x="300" y="437" type="curve"/>
      <point x="300" y="414" type="line"/>
      <point x="449.333" y="370"/>
      <point x="529" y="289.333"/>
      <point x="529" y="188" type="curve" smooth="yes"/>
      <point x="529" y="58.667"/>
      <point x="460.667" y="12"/>
      <point x="354" y="12" type="curve" smooth="yes"/>
      <point x="291.333" y="12"/>
      <point x="242.667" y="33.333"/>
      <point x="204" y="100" type="curve"/>
      <point x="184" y="88" type="line"/>
      <point x="221.333" y="22.667"/>
      <point x="272.667" y="-8.667"/>
    </contour>
    <contour>
      <point x="30" y="416" type="line"/>
      <point x="128" y="416" type="line"/>
      <point x="128" y="438" type="line"/>
      <point x="30" y="438" type="line"/>
    </contour>
  </outline>
</glyph>
<glyph name="eth" format="2">
  <advance width="576"/>
  <unicode hex="00F0"/>
  <outline>
    <contour>
      <point x="288" y="-10" type="curve" smooth="yes"/>
      <point x="432" y="-10"/>
      <point x="536" y="104.333"/>
      <point x="536" y="259" type="curve" smooth="yes"/>
      <point x="536" y="533.667"/>
      <point x="411" y="696.333"/>
      <point x="211" y="739" type="curve"/>
      <point x="201" y="718" type="line"/>
      <point x="359.667" y="690"/>
      <point x="501" y="532.333"/>
      <point x="501" y="371" type="curve"/>
      <point x="511" y="369" type="line"/>
      <point x="501.667" y="441"/>
      <point x="402.667" y="527"/>
      <point x="292" y="527" type="curve" smooth="yes"/>
      <point x="145.333" y="527"/>
      <point x="40" y="421.667"/>
      <point x="40" y="263" type="curve" smooth="yes"/>
      <point x="40" y="101.667"/>
      <point x="141.333" y="-10"/>
    </contour>
    <contour>
      <point x="288" y="12" type="curve" smooth="yes"/>
      <point x="156" y="12"/>
      <point x="63" y="116.333"/>
      <point x="63" y="263" type="curve" smooth="yes"/>
      <point x="63" y="405.667"/>
      <point x="156" y="505"/>
      <point x="288" y="505" type="curve" smooth="yes"/>
      <point x="420" y="505"/>
      <point x="513" y="405.667"/>
      <point x="513" y="263" type="curve" smooth="yes"/>
      <point x="513" y="116.333"/>
      <point x="420" y="12"/>
    </contour>
    <contour>
      <point x="164" y="574" type="line"/>
      <point x="381" y="633" type="line"/>
      <point x="395" y="637" type="line"/>
      <point x="493" y="663" type="line"/>
      <point x="487" y="684" type="line"/>
      <point x="374" y="653" type="line"/>
      <point x="361" y="650" type="line"/>
      <point x="160" y="596" type="line"/>
    </contour>
  </outline>
</glyph>
<glyph name="divide" format="2">
  <advance width="588"/>
  <unicode hex="00F7"/>
  <outline>
    <contour>
      <point x="56" y="286" type="line"/>
      <point x="530" y="286" type="line"/>
      <point x="530" y="308" type="line"/>
      <point x="56" y="308" type="line"/>
    </contour>
    <contour>
      <point x="293" y="119" type="curve" smooth="yes"/>
      <point x="310.333" y="119"/>
      <point x="321" y="133.333"/>
      <point x="321" y="148" type="curve" smooth="yes"/>
      <point x="321" y="161.333"/>
      <point x="310.333" y="177"/>
      <point x="293" y="177" type="curve" smooth="yes"/>
      <point x="275.667" y="177"/>
      <point x="265" y="161.333"/>
      <point x="265" y="148" type="curve" smooth="yes"/>
      <point x="265" y="132"/>
      <point x="275.667" y="119"/>
    </contour>
    <contour>
      <point x="293" y="417" type="curve" smooth="yes"/>
      <point x="310.333" y="417"/>
      <point x="321" y="431.333"/>
      <point x="321" y="446" type="curve" smooth="yes"/>
      <point x="321" y="459.333"/>
      <point x="310.333" y="475"/>
      <point x="293" y="475" type="curve" smooth="yes"/>
      <point x="275.667" y="475"/>
      <point x="265" y="459.333"/>
      <point x="265" y="446" type="curve" smooth="yes"/>
      <point x="265" y="430"/>
      <point x="275.667" y="417"/>
    </contour>
  </outline>
</glyph>
<glyph name="oslash" format="2">
  <advance width="615"/>
  <unicode hex="00F8"/>
  <anchor x="308" y="525" name="top"/>
  <anchor x="308" y="0" name="bottom"/>
  <anchor x="308" y="263" name="center"/>
  <anchor x="458" y="0" name="ogonek"/>
  <anchor x="595" y="525" name="topright"/>
  <outline>
    <contour>
      <point x="81" y="-19" type="line"/>
      <point x="543" y="523" type="line"/>
      <point x="526" y="538" type="line"/>
      <point x="65" y="-5" type="line"/>
    </contour>
    <component base="o"/>
  </outline>
</glyph>
<glyph name="thorn" format="2">
  <advance width="612"/>
  <unicode hex="00FE"/>
  <anchor x="306" y="0" name="bottom"/>
  <anchor x="306" y="525" name="top"/>
  <outline>
    <contour>
      <point x="70" y="-230" type="line"/>
      <point x="92" y="-230" type="line"/>
      <point x="92" y="164" type="line"/>
      <point x="84" y="164" type="line"/>
      <point x="114.667" y="60"/>
      <point x="204" y="-10"/>
      <point x="320" y="-10" type="curve" smooth="yes"/>
      <point x="464" y="-10"/>
      <point x="572" y="103"/>
      <point x="572" y="259" type="curve" smooth="yes"/>
      <point x="572" y="416.333"/>
      <point x="458.333" y="530"/>
      <point x="321" y="530" type="curve" smooth="yes"/>
      <point x="205" y="530"/>
      <point x="116" y="457"/>
      <point x="84" y="353" type="curve"/>
      <point x="92" y="352" type="line"/>
      <point x="92" y="740" type="line"/>
      <point x="70" y="740" type="line"/>
    </contour>
    <contour>
      <point x="316" y="12" type="curve" smooth="yes"/>
      <point x="186.667" y="12"/>
      <point x="89" y="113.333"/>
      <point x="89" y="260" type="curve" smooth="yes"/>
      <point x="89" y="404"/>
      <point x="185.333" y="508"/>
      <point x="316" y="508" type="curve" smooth="yes"/>
      <point x="450.667" y="508"/>
      <point x="550" y="403"/>
      <point x="550" y="259" type="curve" smooth="yes"/>
      <point x="550" y="116.333"/>
      <point x="453.333" y="12"/>
    </contour>
  </outline>
</glyph>
<glyph name="Hbar" format="2">
  <advance width="731"/>
  <unicode hex="0126"/>
  <anchor x="366" y="0" name="bottom"/>
  <anchor x="366" y="350" name="center"/>
  <anchor x="366" y="700" name="top"/>
  <anchor x="20" y="700" name="topleft"/>
  <outline>
    <contour>
      <point x="24" y="541" type="line"/>
      <point x="116" y="541" type="line"/>
      <point x="126" y="541" type="line"/>
      <point x="609" y="541" type="line"/>
      <point x="614" y="541" type="line"/>
      <point x="706" y="541" type="line"/>
      <point x="706" y="562" type="line"/>
      <point x="614" y="562" type="line"/>
      <point x="608" y="562" type="line"/>
      <point x="126" y="562" type="line"/>
      <point x="118" y="562" type="line"/>
      <point x="24" y="562" type="line"/>
    </contour>
    <component base="H"/>
  </outline>
</glyph>
<glyph name="Lslash" format="2">
  <advance width="517"/>
  <unicode hex="0141"/>
  <anchor x="251" y="0" name="bottom"/>
  <anchor x="105" y="350" name="center"/>
  <anchor x="105" y="700" name="top"/>
  <anchor x="282" y="700" name="topright"/>
  <outline>
    <contour>
      <point x="-1" y="312" type="line"/>
      <point x="264" y="433" type="line"/>
      <point x="256" y="454" type="line"/>
      <point x="-9" y="333" type="line"/>
    </contour>
    <component base="L" xOffset="-16"/>
  </outline>
</glyph>
<glyph name="lslash" format="2">
  <advance width="292"/>
  <unicode hex="0142"/>
  <anchor x="166" y="0" name="bottom"/>
  <anchor x="166" y="370" name="center"/>
  <anchor x="166" y="740" name="top"/>
  <anchor x="199" y="740" name="topright"/>
  <outline>
    <contour>
      <point x="18" y="283" type="line"/>
      <point x="282" y="404" type="line"/>
      <point x="274" y="425" type="line"/>
      <point x="10" y="304" type="line"/>
    </contour>
    <component base="l" xOffset="63"/>
  </outline>
</glyph>
<glyph name="Eng" format="2">
  <advance width="731"/>
  <unicode hex="014A"/>
  <outline>
    <contour>
      <point x="494" y="-194" type="line"/>
      <point x="574" y="-194"/>
      <point x="620" y="-146.667"/>
      <point x="620" y="-60" type="curve" smooth="yes"/>
      <point x="620" y="700" type="line"/>
      <point x="598" y="700" type="line"/>
      <point x="598" y="241" type="line" smooth="yes"/>
      <point x="598" y="92"/>
      <point x="601" y="60.333"/>
      <point x="601" y="31" type="curve"/>
      <point x="605" y="31" type="line"/>
      <point x="132" y="700" type="line"/>
      <point x="110" y="700" type="line"/>
      <point x="110" y="0" type="line"/>
      <point x="132" y="0" type="line"/>
      <point x="132" y="470" type="line" smooth="yes"/>
      <point x="132" y="493"/>
      <point x="132" y="663"/>
      <point x="130" y="686" type="curve"/>
      <point x="115" y="686" type="line"/>
      <point x="607" y="-10" type="line"/>
      <point x="598" y="19" type="line"/>
      <point x="598" y="-56" type="line" smooth="yes"/>
      <point x="598" y="-125.333"/>
      <point x="568.667" y="-173"/>
      <point x="486" y="-173" type="curve"/>
    </contour>
  </outline>
</glyph>
<glyph name="OE" format="2">
  <advance width="1002"/>
  <unicode hex="0152"/>
  <anchor x="501" y="0" name="bottom"/>
  <anchor x="501" y="700" name="top"/>
  <outline>
    <contour>
      <point x="380" y="0" type="curve" smooth="yes"/>
      <point x="931" y="0" type="line"/>
      <point x="931" y="22" type="line"/>
      <point x="568" y="22" type="line"/>
      <point x="568" y="351" type="line"/>
      <point x="879" y="351" type="line"/>
      <point x="879" y="373" type="line"/>
      <point x="568" y="373" type="line"/>
      <point x="568" y="678" type="line"/>
      <point x="937" y="678" type="line"/>
      <point x="937" y="700" type="line"/>
      <point x="371" y="700" type="line" smooth="yes"/>
      <point x="205.667" y="700"/>
      <point x="55" y="552.667"/>
      <point x="55" y="350" type="curve" smooth="yes"/>
      <point x="55" y="148.667"/>
      <point x="210.667" y="0"/>
    </contour>
    <contour>
      <point x="78" y="350" type="curve" smooth="yes"/>
      <point x="78" y="536.667"/>
      <point x="223.667" y="678"/>
      <point x="377" y="678" type="curve" smooth="yes"/>
      <point x="546" y="678" type="line"/>
      <point x="546" y="22" type="line"/>
      <point x="386" y="22" type="line" smooth="yes"/>
      <point x="227.333" y="22"/>
      <point x="78" y="164.667"/>
    </contour>
  </outline>
</glyph>
<glyph name="oe" format="2">
  <advance width="1058"/>
  <unicode hex="0153"/>
  <anchor x="318" y="0" name="bottom"/>
  <anchor x="318" y="525" name="top"/>
  <outline>
    <contour>
      <point x="308" y="-10" type="curve" smooth="yes"/>
      <point x="448" y="-10"/>
      <point x="549" y="79"/>
      <point x="571" y="209" type="curve"/>
      <point x="557" y="209" type="line"/>
      <point x="578" y="79"/>
      <point x="676" y="-10"/>
      <point x="810" y="-10" type="curve" smooth="yes"/>
      <point x="886" y="-10"/>
      <point x="948" y="20"/>
      <point x="997" y="65" type="curve"/>
      <point x="985" y="83" type="line"/>
      <point x="938" y="39"/>
      <point x="879" y="12"/>
      <point x="810" y="12" type="curve" smooth="yes"/>
      <point x="667" y="12"/>
      <point x="575" y="125"/>
      <point x="575" y="263" type="curve" smooth="yes"/>
      <point x="575" y="408"/>
      <point x="671" y="508"/>
      <point x="801" y="508" type="curve" smooth="yes"/>
      <point x="907" y="508"/>
      <point x="1002" y="430"/>
      <point x="1002" y="307" type="curve" smooth="yes"/>
      <point x="1002" y="278" type="line"/>
      <point x="1015" y="287" type="line"/>
      <point x="571" y="287" type="line"/>
      <point x="570" y="265" type="line"/>
      <point x="1022" y="265" type="line"/>
      <point x="1023" y="291" type="line" smooth="yes"/>
      <point x="1029" y="438"/>
      <point x="930" y="530"/>
      <point x="798" y="530" type="curve" smooth="yes"/>
      <point x="670" y="530"/>
      <point x="577" y="444"/>
      <point x="557" y="315" type="curve"/>
      <point x="571" y="317" type="line"/>
      <point x="548" y="444"/>
      <point x="448" y="530"/>
      <point x="308" y="530" type="curve" smooth="yes"/>
      <point x="150.667" y="530"/>
      <point x="40" y="419"/>
      <point x="40" y="263" type="curve" smooth="yes"/>
      <point x="40" y="104.333"/>
      <point x="150.667" y="-10"/>
    </contour>
    <contour>
      <point x="308" y="12" type="curve" smooth="yes"/>
      <point x="165.333" y="12"/>
      <point x="62" y="116.333"/>
      <point x="62" y="263" type="curve" smooth="yes"/>
      <point x="62" y="404.333"/>
      <point x="165.333" y="508"/>
      <point x="308" y="508" type="curve" smooth="yes"/>
      <point x="449.333" y="508"/>
      <point x="553" y="404.333"/>
      <point x="553" y="263" type="curve" smooth="yes"/>
      <point x="553" y="116.333"/>
      <point x="449.333" y="12"/>
    </contour>
  </outline>
</glyph>
<glyph name="Tbar" format="2">
  <advance width="488"/>
  <unicode hex="0166"/>
  <anchor x="244" y="0" name="bottom"/>
  <anchor x="244" y="350" name="center"/>
  <anchor x="244" y="700" name="top"/>
  <outline>
    <contour>
      <point x="109" y="340" type="line"/>
      <point x="377" y="340" type="line"/>
      <point x="377" y="361" type="line"/>
      <point x="109" y="361" type="line"/>
    </contour>
    <component base="T"/>
  </outline>
</glyph>
<glyph name="Uogonek" format="2">
  <advance width="744"/>
  <unicode hex="0172"/>
  <anchor x="372" y="0" name="bottom"/>
  <anchor x="523" y="-6" name="ogonek"/>
  <anchor x="372" y="700" name="top"/>
  <anchor x="724" y="700" name="topright"/>
  <outline>
    <contour>
      <point x="459" y="-236" type="curve" smooth="yes"/>
      <point x="499" y="-236"/>
      <point x="533" y="-214"/>
      <point x="549" y="-182" type="curve"/>
      <point x="534" y="-169" type="line"/>
      <point x="519" y="-196"/>
      <point x="494" y="-214"/>
      <point x="459" y="-214" type="curve" smooth="yes"/>
      <point x="415" y="-214"/>
      <point x="381" y="-180"/>
      <point x="381" y="-129" type="curve" smooth="yes"/>
      <point x="381" y="-63"/>
      <point x="439" y="-13"/>
      <point x="512" y="33" type="curve"/>
      <point x="507" y="51" type="line"/>
      <point x="432" y="5"/>
      <point x="359" y="-47"/>
      <point x="359" y="-132" type="curve" smooth="yes"/>
      <point x="359" y="-192"/>
      <point x="403" y="-236"/>
    </contour>
    <component base="U"/>
  </outline>
</glyph>
<glyph name="Schwa" format="2">
  <advance width="795"/>
  <unicode hex="018F"/>
  <anchor x="398" y="0" name="bottom"/>
  <anchor x="398" y="700" name="top"/>
  <outline>
    <contour>
      <point x="395" y="-10" type="curve" smooth="yes"/>
      <point x="591" y="-10"/>
      <point x="740" y="137.333"/>
      <point x="740" y="344" type="curve" smooth="yes"/>
      <point x="740" y="553.333"/>
      <point x="581.333" y="710"/>
      <point x="372" y="710" type="curve" smooth="yes"/>
      <point x="281.333" y="710"/>
      <point x="186.667" y="667.667"/>
      <point x="128" y="609" type="curve"/>
      <point x="143" y="593" type="line"/>
      <point x="200.333" y="647.667"/>
      <point x="283.333" y="688"/>
      <point x="370" y="688" type="curve" smooth="yes"/>
      <point x="567.333" y="688"/>
      <point x="717" y="542.667"/>
      <point x="717" y="348" type="curve" smooth="yes"/>
      <point x="717" y="153.333"/>
      <point x="578.667" y="12"/>
      <point x="396" y="12" type="curve" smooth="yes"/>
      <point x="202.667" y="12"/>
      <point x="77" y="160.333"/>
      <point x="77" y="343" type="curve"/>
      <point x="728" y="343" type="line"/>
      <point x="728" y="365" type="line"/>
      <point x="55" y="365" type="line"/>
      <point x="55" y="353" type="line" smooth="yes"/>
      <point x="51" y="147.667"/>
      <point x="195" y="-10"/>
    </contour>
  </outline>
</glyph>
<glyph name="florin" format="2">
  <advance width="519"/>
  <unicode hex="0192"/>
  <outline>
    <contour>
      <point x="96" y="-30" type="curve" smooth="yes"/>
      <point x="165.553" y="-30"/>
      <point x="203.137" y="18.781"/>
      <point x="221" y="120" type="curve" smooth="yes"/>
      <point x="293" y="528" type="line" smooth="yes"/>
      <point x="310.333" y="625.333"/>
      <point x="344.667" y="671"/>
      <point x="402" y="671" type="curve" smooth="yes"/>
      <point x="439.333" y="671"/>
      <point x="471.667" y="660.667"/>
      <point x="505" y="638" type="curve"/>
      <point x="516" y="658" type="line"/>
      <point x="482.667" y="680.667"/>
      <point x="448.333" y="693"/>
      <point x="407" y="693" type="curve" smooth="yes"/>
      <point x="329.667" y="693"/>
      <point x="290.667" y="641.667"/>
      <point x="272" y="539" type="curve" smooth="yes"/>
      <point x="194" y="100" type="line" smooth="yes"/>
      <point x="184.761" y="48"/>
      <point x="161.333" y="-8"/>
      <point x="100" y="-8" type="curve" smooth="yes"/>
      <point x="67.44" y="-8"/>
      <point x="48.667" y="-2"/>
      <point x="14" y="22" type="curve"/>
      <point x="4" y="2" type="line"/>
      <point x="29.333" y="-16.667"/>
      <point x="61.333" y="-30"/>
    </contour>
    <contour>
      <point x="80" y="422" type="line"/>
      <point x="449" y="422" type="line"/>
      <point x="449" y="444" type="line"/>
      <point x="80" y="444" type="line"/>
    </contour>
  </outline>
</glyph>
<glyph name="ohorn" format="2">
  <advance width="615"/>
  <unicode hex="01A1"/>
  <anchor x="308" y="0" name="bottom"/>
  <anchor x="308" y="525" name="top"/>
  <outline>
    <contour>
      <point x="308" y="-10" type="curve" smooth="yes"/>
      <point x="466.667" y="-10"/>
      <point x="575" y="104.333"/>
      <point x="575" y="263" type="curve" smooth="yes"/>
      <point x="575" y="380"/>
      <point x="514" y="472"/>
      <point x="417" y="510" type="curve"/>
      <point x="410" y="499" type="line"/>
      <point x="494" y="487"/>
      <point x="546" y="543"/>
      <point x="546" y="624" type="curve"/>
      <point x="524" y="624" type="line"/>
      <point x="524" y="557"/>
      <point x="489" y="517"/>
      <point x="428" y="517" type="curve" smooth="yes"/>
      <point x="411.764" y="517"/>
      <point x="395.527" y="519.179"/>
      <point x="379.291" y="521.928" type="curve" smooth="yes"/>
      <point x="356.94" y="527.222"/>
      <point x="333.1" y="530"/>
      <point x="308" y="530" type="curve" smooth="yes"/>
      <point x="150.667" y="530"/>
      <point x="40" y="419"/>
      <point x="40" y="263" type="curve" smooth="yes"/>
      <point x="40" y="104.333"/>
      <point x="150.667" y="-10"/>
    </contour>
    <contour>
      <point x="308" y="12" type="curve" smooth="yes"/>
      <point x="165.333" y="12"/>
      <point x="62" y="116.333"/>
      <point x="62" y="263" type="curve" smooth="yes"/>
      <point x="62" y="404.333"/>
      <point x="165.333" y="508"/>
      <point x="308" y="508" type="curve" smooth="yes"/>
      <point x="449.333" y="508"/>
      <point x="553" y="404.333"/>
      <point x="553" y="263" type="curve" smooth="yes"/>
      <point x="553" y="116.333"/>
      <point x="449.333" y="12"/>
    </contour>
  </outline>
</glyph>
<glyph name="uhorn" format="2">
  <advance width="538"/>
  <unicode hex="01B0"/>
  <anchor x="269" y="0" name="bottom"/>
  <anchor x="269" y="525" name="top"/>
  <outline>
    <contour>
      <point x="263" y="-10" type="curve" smooth="yes"/>
      <point x="354" y="-10"/>
      <point x="433" y="54"/>
      <point x="454" y="127" type="curve"/>
      <point x="444" y="124" type="line"/>
      <point x="446" y="0" type="line"/>
      <point x="466" y="0" type="line"/>
      <point x="466" y="517" type="line"/>
      <point x="450" y="505" type="line"/>
      <point x="530" y="505"/>
      <point x="560" y="545"/>
      <point x="560" y="624" type="curve"/>
      <point x="538" y="624" type="line"/>
      <point x="538" y="556"/>
      <point x="516" y="525"/>
      <point x="444" y="525" type="curve"/>
      <point x="444" y="149" type="line" smooth="yes"/>
      <point x="444" y="106.333"/>
      <point x="362.333" y="12"/>
      <point x="265" y="12" type="curve" smooth="yes"/>
      <point x="155.667" y="12"/>
      <point x="95" y="66.815"/>
      <point x="95" y="197" type="curve" smooth="yes"/>
      <point x="95" y="525" type="line"/>
      <point x="73" y="525" type="line"/>
      <point x="73" y="197" type="line" smooth="yes"/>
      <point x="73" y="52.168"/>
      <point x="141.667" y="-10"/>
    </contour>
  </outline>
</glyph>
<glyph name="oogonek" format="2">
  <advance width="615"/>
  <unicode hex="01EB"/>
  <anchor x="308" y="525" name="top"/>
  <anchor x="308" y="0" name="bottom"/>
  <anchor x="308" y="263" name="center"/>
  <anchor x="458" y="0" name="ogonek"/>
  <anchor x="595" y="525" name="topright"/>
  <outline>
    <contour>
      <point x="423" y="-232" type="curve" smooth="yes"/>
      <point x="460" y="-232"/>
      <point x="492" y="-210"/>
      <point x="508" y="-178" type="curve"/>
      <point x="493" y="-165" type="line"/>
      <point x="478" y="-192"/>
      <point x="455" y="-210"/>
      <point x="423" y="-210" type="curve" smooth="yes"/>
      <point x="381" y="-210"/>
      <point x="350" y="-176"/>
      <point x="350" y="-128" type="curve" smooth="yes"/>
      <point x="350" y="-69"/>
      <point x="397" y="-9"/>
      <point x="465" y="37" type="curve"/>
      <point x="460" y="53" type="line"/>
      <point x="390" y="10"/>
      <point x="328" y="-52"/>
      <point x="328" y="-131" type="curve" smooth="yes"/>
      <point x="328" y="-189"/>
      <point x="372" y="-232"/>
    </contour>
    <component base="o"/>
  </outline>
</glyph>
<glyph name="ringhalfleft" format="2">
  <advance width="254"/>
  <unicode hex="02BF"/>
  <outline>
    <contour>
      <point x="170" y="543" type="curve"/>
      <point x="170" y="565" type="line"/>
      <point x="126" y="565"/>
      <point x="89" y="599.667"/>
      <point x="89" y="641" type="curve" smooth="yes"/>
      <point x="89" y="687.667"/>
      <point x="126" y="719"/>
      <point x="170" y="719" type="curve"/>
      <point x="170" y="740" type="line"/>
      <point x="115.333" y="740"/>
      <point x="67" y="694.333"/>
      <point x="67" y="641" type="curve" smooth="yes"/>
      <point x="67" y="589"/>
      <point x="115.333" y="543"/>
    </contour>
  </outline>
</glyph>
<glyph name="verticallinemod" format="2">
  <advance width="231"/>
  <unicode hex="02C8"/>
  <outline>
    <contour>
      <point x="104.499" y="368" type="line"/>
      <point x="128" y="368" type="line"/>
      <point x="128" y="712" type="line"/>
      <point x="104.499" y="712" type="line"/>
    </contour>
  </outline>
</glyph>
<glyph name="verticallinelowmod" format="2">
  <advance width="222"/>
  <unicode hex="02CC"/>
  <outline>
    <contour>
      <point x="100" y="-147" type="line"/>
      <point x="122" y="-147" type="line"/>
      <point x="122" y="197" type="line"/>
      <point x="100" y="197" type="line"/>
    </contour>
  </outline>
</glyph>
<glyph name="gravecomb" format="2">
  <unicode hex="0300"/>
  <anchor x="270" y="525" name="_top"/>
  <anchor x="250" y="690" name="top"/>
  <outline>
    <contour>
      <point x="317" y="611" type="line"/>
      <point x="327" y="626" type="line"/>
      <point x="187" y="736" type="line"/>
      <point x="173" y="715" type="line"/>
    </contour>
  </outline>
</glyph>
<glyph name="dblgravecomb" format="2">
  <unicode hex="030F"/>
  <anchor x="304" y="525" name="_top"/>
  <anchor x="250" y="690" name="top"/>
  <outline>
    <contour>
      <point x="377" y="611" type="line"/>
      <point x="387" y="626" type="line"/>
      <point x="247" y="736" type="line"/>
      <point x="233" y="715" type="line"/>
    </contour>
    <contour>
      <point x="257" y="611" type="line"/>
      <point x="267" y="626" type="line"/>
      <point x="127" y="736" type="line"/>
      <point x="113" y="715" type="line"/>
    </contour>
  </outline>
</glyph>
<glyph name="horncomb" format="2">
  <unicode hex="031B"/>
  <anchor x="192" y="525" name="_topright"/>
  <anchor x="329" y="624" name="topright"/>
  <outline>
    <contour>
      <point x="199" y="505" type="line"/>
      <point x="279" y="505"/>
      <point x="309" y="545"/>
      <point x="309" y="624" type="curve"/>
      <point x="287" y="624" type="line"/>
      <point x="287" y="556"/>
      <point x="265" y="525"/>
      <point x="192" y="525" type="curve"/>
    </contour>
  </outline>
</glyph>
<glyph name="dotbelowcomb" format="2">
  <unicode hex="0323"/>
  <anchor x="250" y="0" name="_bottom"/>
  <anchor x="250" y="-139" name="bottom"/>
  <outline>
    <contour>
      <point x="250" y="-139" type="curve" smooth="yes"/>
      <point x="269" y="-139"/>
      <point x="278" y="-127"/>
      <point x="278" y="-110" type="curve" smooth="yes"/>
      <point x="278" y="-93"/>
      <point x="267" y="-81"/>
      <point x="250" y="-81" type="curve" smooth="yes"/>
      <point x="231" y="-81"/>
      <point x="222" y="-94"/>
      <point x="222" y="-110" type="curve" smooth="yes"/>
      <point x="222" y="-127"/>
      <point x="231" y="-139"/>
    </contour>
  </outline>
</glyph>
<glyph name="commaaccentcomb" format="2">
  <unicode hex="0326"/>
  <anchor x="250" y="0" name="_bottom"/>
  <anchor x="251" y="-204" name="bottom"/>
  <outline>
    <contour>
      <point x="235" y="-204" type="line"/>
      <point x="273" y="-173"/>
      <point x="282" y="-149"/>
      <point x="282" y="-114" type="curve" smooth="yes"/>
      <point x="282" y="-86"/>
      <point x="268" y="-68"/>
      <point x="246" y="-68" type="curve" smooth="yes"/>
      <point x="228" y="-68"/>
      <point x="219" y="-80"/>
      <point x="219" y="-92" type="curve" smooth="yes"/>
      <point x="219" y="-105"/>
      <point x="225" y="-114"/>
      <point x="239" y="-121" type="curve" smooth="yes"/>
      <point x="253" y="-128"/>
      <point x="256" y="-133"/>
      <point x="256" y="-144" type="curve" smooth="yes"/>
      <point x="256" y="-164"/>
      <point x="237" y="-178"/>
      <point x="222" y="-191" type="curve"/>
    </contour>
  </outline>
</glyph>
<glyph name="macronbelowcomb" format="2">
  <unicode hex="0331"/>
  <anchor x="250" y="0" name="_bottom"/>
  <anchor x="251" y="-121" name="bottom"/>
  <outline>
    <contour>
      <point x="115" y="-121" type="line"/>
      <point x="386" y="-121" type="line"/>
      <point x="386" y="-99" type="line"/>
      <point x="115" y="-99" type="line"/>
    </contour>
  </outline>
</glyph>
<glyph name="bullet" format="2">
  <advance width="347"/>
  <unicode hex="2022"/>
  <outline>
    <contour>
      <point x="172" y="274" type="curve" smooth="yes"/>
      <point x="212" y="274"/>
      <point x="245" y="305.333"/>
      <point x="245" y="344" type="curve" smooth="yes"/>
      <point x="245" y="382.667"/>
      <point x="212" y="415"/>
      <point x="172" y="415" type="curve" smooth="yes"/>
      <point x="134.667" y="415"/>
      <point x="102" y="382.667"/>
      <point x="102" y="344" type="curve" smooth="yes"/>
      <point x="102" y="305.333"/>
      <point x="136" y="274"/>
    </contour>
  </outline>
</glyph>
<glyph name="perthousand" format="2">
  <advance width="1186"/>
  <unicode hex="2030"/>
  <outline>
    <contour>
      <point x="172" y="0" type="line"/>
      <point x="199" y="0" type="line"/>
      <point x="664" y="700" type="line"/>
      <point x="637" y="700" type="line"/>
    </contour>
    <contour>
      <point x="193" y="329" type="curve" smooth="yes"/>
      <point x="281" y="329"/>
      <point x="347" y="411.333"/>
      <point x="347" y="518" type="curve" smooth="yes"/>
      <point x="347" y="628.667"/>
      <point x="282.333" y="709"/>
      <point x="193" y="709" type="curve" smooth="yes"/>
      <point x="102.333" y="709"/>
      <point x="40" y="628.667"/>
      <point x="40" y="518" type="curve" smooth="yes"/>
      <point x="40" y="408.667"/>
      <point x="102.333" y="329"/>
    </contour>
    <contour>
      <point x="193" y="350" type="curve" smooth="yes"/>
      <point x="117" y="350"/>
      <point x="62" y="418"/>
      <point x="62" y="518" type="curve" smooth="yes"/>
      <point x="62" y="618"/>
      <point x="117" y="688"/>
      <point x="193" y="688" type="curve" smooth="yes"/>
      <point x="270.333" y="688"/>
      <point x="325" y="619.333"/>
      <point x="325" y="518" type="curve" smooth="yes"/>
      <point x="325" y="418"/>
      <point x="267.667" y="350"/>
    </contour>
    <contour>
      <point x="637" y="-9" type="curve" smooth="yes"/>
      <point x="725" y="-9"/>
      <point x="791" y="73.333"/>
      <point x="791" y="180" type="curve" smooth="yes"/>
      <point x="791" y="290.667"/>
      <point x="726.333" y="371"/>
      <point x="637" y="371" type="curve" smooth="yes"/>
      <point x="546.333" y="371"/>
      <point x="484" y="290.667"/>
      <point x="484" y="180" type="curve" smooth="yes"/>
      <point x="484" y="70.667"/>
      <point x="546.333" y="-9"/>
    </contour>
    <contour>
      <point x="637" y="12" type="curve" smooth="yes"/>
      <point x="561" y="12"/>
      <point x="506" y="80"/>
      <point x="506" y="180" type="curve" smooth="yes"/>
      <point x="506" y="280"/>
      <point x="561" y="350"/>
      <point x="637" y="350" type="curve" smooth="yes"/>
      <point x="714.333" y="350"/>
      <point x="769" y="281.333"/>
      <point x="769" y="180" type="curve" smooth="yes"/>
      <point x="769" y="80"/>
      <point x="711.667" y="12"/>
    </contour>
    <contour>
      <point x="995" y="-9" type="curve" smooth="yes"/>
      <point x="1083" y="-9"/>
      <point x="1146" y="69.667"/>
      <point x="1146" y="175" type="curve" smooth="yes"/>
      <point x="1146" y="283"/>
      <point x="1084.333" y="360"/>
      <point x="995" y="360" type="curve" smooth="yes"/>
      <point x="904.333" y="360"/>
      <point x="842" y="283"/>
      <point x="842" y="175" type="curve" smooth="yes"/>
      <point x="842" y="69.667"/>
      <point x="905.667" y="-9"/>
    </contour>
    <contour>
      <point x="995" y="13" type="curve" smooth="yes"/>
      <point x="917.667" y="13"/>
      <point x="865" y="77.667"/>
      <point x="865" y="175" type="curve" smooth="yes"/>
      <point x="865" y="273.667"/>
      <point x="916.333" y="338"/>
      <point x="995" y="338" type="curve" smooth="yes"/>
      <point x="1073.667" y="338"/>
      <point x="1123" y="272.333"/>
      <point x="1123" y="175" type="curve" smooth="yes"/>
      <point x="1123" y="80.333"/>
      <point x="1071" y="13"/>
    </contour>
  </outline>
</glyph>
<glyph name="colonsign" format="2">
  <advance width="690"/>
  <unicode hex="20A1"/>
  <anchor x="387" y="0" name="bottom"/>
  <anchor x="399" y="700" name="top"/>
  <outline>
    <contour>
      <point x="232" y="-45" type="line"/>
      <point x="632" y="760" type="line"/>
      <point x="610" y="769" type="line"/>
      <point x="212" y="-35" type="line"/>
    </contour>
    <contour>
      <point x="97" y="-44" type="line"/>
      <point x="497" y="760" type="line"/>
      <point x="475" y="769" type="line"/>
      <point x="77" y="-35" type="line"/>
    </contour>
    <component base="C"/>
  </outline>
</glyph>
<glyph name="franc" format="2">
  <advance width="602"/>
  <unicode hex="20A3"/>
  <anchor x="288" y="0" name="bottom"/>
  <anchor x="288" y="700" name="top"/>
  <outline>
    <contour>
      <point x="16" y="161" type="line"/>
      <point x="284" y="161" type="line"/>
      <point x="284" y="182" type="line"/>
      <point x="16" y="182" type="line"/>
    </contour>
    <component base="F"/>
  </outline>
</glyph>
<glyph name="lira" format="2">
  <advance width="610"/>
  <unicode hex="20A4"/>
  <outline>
    <contour>
      <point x="157" y="47" type="line"/>
      <point x="213" y="84.333"/>
      <point x="230" y="147.333"/>
      <point x="230" y="202" type="curve" smooth="yes"/>
      <point x="230" y="256"/>
      <point x="219" y="298"/>
      <point x="200" y="353" type="curve" smooth="yes"/>
      <point x="185" y="399"/>
      <point x="167" y="453"/>
      <point x="167" y="501" type="curve" smooth="yes"/>
      <point x="167" y="601"/>
      <point x="238.667" y="673"/>
      <point x="340" y="673" type="curve" smooth="yes"/>
      <point x="398.667" y="673"/>
      <point x="441.667" y="658.333"/>
      <point x="491" y="597" type="curve"/>
      <point x="509" y="611" type="line"/>
      <point x="470.333" y="665.667"/>
      <point x="420" y="695"/>
      <point x="340" y="695" type="curve" smooth="yes"/>
      <point x="220" y="695"/>
      <point x="144" y="616.667"/>
      <point x="144" y="502" type="curve" smooth="yes"/>
      <point x="144" y="466"/>
      <point x="146.333" y="434.667"/>
      <point x="173" y="352" type="curve" smooth="yes"/>
      <point x="199.667" y="272"/>
      <point x="207" y="238.333"/>
      <point x="207" y="201" type="curve" smooth="yes"/>
      <point x="207" y="137"/>
      <point x="181" y="78"/>
      <point x="141" y="62" type="curve"/>
    </contour>
    <contour>
      <point x="447" y="-5" type="curve" smooth="yes"/>
      <point x="488.333" y="-5"/>
      <point x="526" y="9.667"/>
      <point x="562" y="31" type="curve"/>
      <point x="548" y="49" type="line"/>
      <point x="513.333" y="27.667"/>
      <point x="479" y="17"/>
      <point x="447" y="17" type="curve" smooth="yes"/>
      <point x="409" y="17"/>
      <point x="372" y="27"/>
      <point x="334" y="39" type="curve" smooth="yes"/>
      <point x="262" y="61.667"/>
      <point x="231" y="69"/>
      <point x="199" y="69" type="curve" smooth="yes"/>
      <point x="145.667" y="69"/>
      <point x="103.333" y="50.667"/>
      <point x="62" y="32" type="curve"/>
      <point x="73" y="13" type="line"/>
      <point x="117" y="33"/>
      <point x="161.667" y="47"/>
      <point x="199" y="47" type="curve" smooth="yes"/>
      <point x="228" y="47"/>
      <point x="285" y="28"/>
      <point x="313" y="20" type="curve" smooth="yes"/>
      <point x="358" y="7"/>
      <point x="404" y="-5"/>
    </contour>
    <contour>
      <point x="59" y="236" type="line"/>
      <point x="437" y="236" type="line"/>
      <point x="437" y="258" type="line"/>
      <point x="59" y="258" type="line"/>
    </contour>
    <contour>
      <point x="59" y="353" type="line"/>
      <point x="437" y="353" type="line"/>
      <point x="437" y="375" type="line"/>
      <point x="59" y="375" type="line"/>
    </contour>
  </outline>
</glyph>
<glyph name="naira" format="2">
  <advance width="790"/>
  <unicode hex="20A6"/>
  <anchor x="396" y="0" name="bottom"/>
  <anchor x="396" y="700" name="top"/>
  <outline>
    <contour>
      <point x="40" y="337" type="line"/>
      <point x="146" y="337" type="line"/>
      <point x="155" y="337" type="line"/>
      <point x="633" y="337" type="line"/>
      <point x="643" y="337" type="line"/>
      <point x="750" y="337" type="line"/>
      <point x="750" y="359" type="line"/>
      <point x="644" y="359" type="line"/>
      <point x="634" y="359" type="line"/>
      <point x="154" y="359" type="line"/>
      <point x="146" y="359" type="line"/>
      <point x="40" y="359" type="line"/>
    </contour>
    <component base="N" xOffset="30"/>
  </outline>
</glyph>
<glyph name="peseta" format="2">
  <advance width="791"/>
  <unicode hex="20A7"/>
  <anchor x="383" y="0" name="bottom"/>
  <anchor x="383" y="700" name="top"/>
  <outline>
    <contour>
      <point x="93" y="496" type="line"/>
      <point x="728" y="496" type="line"/>
      <point x="728" y="518" type="line"/>
      <point x="93" y="518" type="line"/>
    </contour>
    <component base="P" xOffset="83"/>
  </outline>
</glyph>
<glyph name="won" format="2">
  <advance width="897"/>
  <unicode hex="20A9"/>
  <anchor x="449" y="0" name="bottom"/>
  <anchor x="449" y="700" name="top"/>
  <outline>
    <contour>
      <point x="20" y="336" type="line"/>
      <point x="152" y="336" type="line"/>
      <point x="163" y="336" type="line"/>
      <point x="735" y="336" type="line"/>
      <point x="747" y="336" type="line"/>
      <point x="877" y="336" type="line"/>
      <point x="877" y="357" type="line"/>
      <point x="751" y="357" type="line"/>
      <point x="738" y="357" type="line"/>
      <point x="155" y="357" type="line"/>
      <point x="146" y="357" type="line"/>
      <point x="20" y="357" type="line"/>
    </contour>
    <component base="W" xOffset="24"/>
  </outline>
</glyph>
<glyph name="kip" format="2">
  <advance width="666"/>
  <unicode hex="20AD"/>
  <outline>
    <contour>
      <point x="150" y="234" type="line"/>
      <point x="628" y="700" type="line"/>
      <point x="596" y="700" type="line"/>
      <point x="150" y="265" type="line"/>
    </contour>
    <contour>
      <point x="140" y="0" type="line"/>
      <point x="162" y="0" type="line"/>
      <point x="162" y="700" type="line"/>
      <point x="140" y="700" type="line"/>
    </contour>
    <contour>
      <point x="50" y="400" type="line"/>
      <point x="150" y="400" type="line"/>
      <point x="150" y="422" type="line"/>
      <point x="50" y="422" type="line"/>
    </contour>
    <contour>
      <point x="617" y="0" type="line"/>
      <point x="646" y="0" type="line"/>
      <point x="329" y="420" type="line"/>
      <point x="312" y="404" type="line"/>
    </contour>
    <contour>
      <point x="332" y="400" type="line"/>
      <point x="599" y="400" type="line"/>
      <point x="599" y="422" type="line"/>
      <point x="332" y="422" type="line"/>
    </contour>
  </outline>
</glyph>
<glyph name="guarani" format="2">
  <advance width="767"/>
  <unicode hex="20B2"/>
  <outline>
    <contour>
      <point x="400" y="-10" type="curve" smooth="yes"/>
      <point x="598.667" y="-10"/>
      <point x="722" y="111"/>
      <point x="722" y="339" type="curve" smooth="yes"/>
      <point x="722" y="343"/>
      <point x="722" y="346.167"/>
      <point x="722" y="358" type="curve"/>
      <point x="409" y="358" type="line"/>
      <point x="409" y="336" type="line"/>
      <point x="705" y="336" type="line"/>
      <point x="699" y="341" type="line"/>
      <point x="699" y="322" type="line" smooth="yes"/>
      <point x="699" y="138"/>
      <point x="592" y="12"/>
      <point x="400" y="12" type="curve" smooth="yes"/>
      <point x="214.667" y="12"/>
      <point x="78" y="151.333"/>
      <point x="78" y="346" type="curve" smooth="yes"/>
      <point x="78" y="543.333"/>
      <point x="213.667" y="688"/>
      <point x="399" y="688" type="curve" smooth="yes"/>
      <point x="504.333" y="688"/>
      <point x="593.667" y="640"/>
      <point x="651" y="564" type="curve"/>
      <point x="668" y="580" type="line"/>
      <point x="604" y="658.667"/>
      <point x="512.333" y="710"/>
      <point x="399" y="710" type="curve" smooth="yes"/>
      <point x="197.667" y="710"/>
      <point x="55" y="558"/>
      <point x="55" y="346" type="curve" smooth="yes"/>
      <point x="55" y="136.667"/>
      <point x="198.667" y="-10"/>
    </contour>
    <contour>
      <point x="387" y="-136" type="line"/>
      <point x="409" y="-136" type="line"/>
      <point x="409" y="797" type="line"/>
      <point x="387" y="797" type="line"/>
    </contour>
  </outline>
</glyph>
<glyph name="liraTurkish" format="2">
  <advance width="609"/>
  <unicode hex="20BA"/>
  <outline>
    <contour>
      <point x="210" y="0" type="curve" smooth="yes"/>
      <point x="398" y="0"/>
      <point x="514.395" y="65.944"/>
      <point x="545" y="203" type="curve"/>
      <point x="525" y="208" type="line"/>
      <point x="487.667" y="73.333"/>
      <point x="370.667" y="23"/>
      <point x="208" y="23" type="curve"/>
      <point x="217" y="8" type="line"/>
      <point x="217" y="700" type="line"/>
      <point x="195" y="700" type="line"/>
      <point x="195" y="5" type="line"/>
      <point x="199" y="1"/>
      <point x="202" y="0"/>
    </contour>
    <contour>
      <point x="86" y="188" type="line"/>
      <point x="431" y="380" type="line"/>
      <point x="418" y="400" type="line"/>
      <point x="78" y="209" type="line"/>
    </contour>
    <contour>
      <point x="86" y="365" type="line"/>
      <point x="431" y="557" type="line"/>
      <point x="418" y="577" type="line"/>
      <point x="78" y="386" type="line"/>
    </contour>
  </outline>
</glyph>
<glyph name="manat" format="2">
  <advance width="745"/>
  <unicode hex="20BC"/>
  <outline>
    <contour>
      <point x="110" y="0" type="line"/>
      <point x="132" y="0" type="line"/>
      <point x="132" y="422" type="line" smooth="yes"/>
      <point x="132" y="575.333"/>
      <point x="228" y="684"/>
      <point x="368" y="684" type="curve" smooth="yes"/>
      <point x="512" y="684"/>
      <point x="612" y="575.333"/>
      <point x="612" y="422" type="curve" smooth="yes"/>
      <point x="612" y="0" type="line"/>
      <point x="634" y="0" type="line"/>
      <point x="634" y="431" type="line" smooth="yes"/>
      <point x="634" y="591"/>
      <point x="522.667" y="706"/>
      <point x="368" y="706" type="curve" smooth="yes"/>
      <point x="217.333" y="706"/>
      <point x="111.333" y="591"/>
      <point x="110" y="431" type="curve" smooth="yes"/>
    </contour>
    <contour>
      <point x="357" y="254" type="line"/>
      <point x="379" y="254" type="line"/>
      <point x="379" y="801" type="line"/>
      <point x="357" y="801" type="line"/>
    </contour>
  </outline>
</glyph>
<glyph name="Ohm" format="2">
  <advance width="675"/>
  <unicode hex="2126"/>
  <outline>
    <contour>
      <point x="39" y="0" type="line"/>
      <point x="271" y="0" type="line"/>
      <point x="271" y="22" type="line"/>
      <point x="225.089" y="51.707"/>
      <point x="151.547" y="128.62"/>
      <point x="102" y="217" type="curve" smooth="yes"/>
      <point x="69.08" y="276.257"/>
      <point x="48" y="343"/>
      <point x="48" y="403" type="curve" smooth="yes"/>
      <point x="48" y="548.333"/>
      <point x="160.667" y="688"/>
      <point x="338" y="688" type="curve" smooth="yes"/>
      <point x="515.333" y="688"/>
      <point x="628" y="548.333"/>
      <point x="628" y="403" type="curve" smooth="yes"/>
      <point x="628" y="341.667"/>
      <point x="606.928" y="275.271"/>
      <point x="574" y="216" type="curve" smooth="yes"/>
      <point x="524.452" y="127.617"/>
      <point x="450.912" y="51.708"/>
      <point x="405" y="22" type="curve"/>
      <point x="405" y="0" type="line"/>
      <point x="637" y="0" type="line"/>
      <point x="637" y="22" type="line"/>
      <point x="425" y="22" type="line"/>
      <point x="426" y="10" type="line"/>
      <point x="562" y="119.333"/>
      <point x="651" y="261.333"/>
      <point x="651" y="404" type="curve" smooth="yes"/>
      <point x="651" y="576"/>
      <point x="516.667" y="710"/>
      <point x="338" y="710" type="curve" smooth="yes"/>
      <point x="159.333" y="710"/>
      <point x="25" y="576"/>
      <point x="25" y="404" type="curve" smooth="yes"/>
      <point x="25" y="261.333"/>
      <point x="114" y="119.333"/>
      <point x="250" y="10" type="curve"/>
      <point x="251" y="22" type="line"/>
      <point x="39" y="22" type="line"/>
    </contour>
  </outline>
</glyph>
<glyph name="estimated" format="2">
  <advance width="629"/>
  <unicode hex="212E"/>
  <outline>
    <contour>
      <point x="319" y="-11" type="curve" smooth="yes"/>
      <point x="424.333" y="-11"/>
      <point x="488.667" y="27"/>
      <point x="550" y="115" type="curve" smooth="yes"/>
      <point x="552.667" y="119"/>
      <point x="556" y="124.667"/>
      <point x="556" y="130" type="curve" smooth="yes"/>
      <point x="556" y="143.333"/>
      <point x="544.667" y="150"/>
      <point x="534" y="150" type="curve" smooth="yes"/>
      <point x="527.333" y="150"/>
      <point x="521" y="145.667"/>
      <point x="517" y="139" type="curve" smooth="yes"/>
      <point x="467.667" y="60.333"/>
      <point x="403" y="28"/>
      <point x="319" y="28" type="curve" smooth="yes"/>
      <point x="184" y="28"/>
      <point x="99" y="137"/>
      <point x="99" y="213" type="curve" smooth="yes"/>
      <point x="99" y="292" type="line"/>
      <point x="93" y="285" type="line"/>
      <point x="573" y="285" type="line" smooth="yes"/>
      <point x="587.667" y="285"/>
      <point x="596.333" y="297"/>
      <point x="595" y="309" type="curve" smooth="yes"/>
      <point x="585.667" y="469"/>
      <point x="475" y="581"/>
      <point x="319" y="581" type="curve" smooth="yes"/>
      <point x="152.333" y="581"/>
      <point x="43" y="450.333"/>
      <point x="43" y="285" type="curve" smooth="yes"/>
      <point x="43" y="121"/>
      <point x="152.333" y="-11"/>
    </contour>
    <contour>
      <point x="99" y="314" type="line"/>
      <point x="99" y="365" type="line" smooth="yes"/>
      <point x="99" y="452"/>
      <point x="195" y="543"/>
      <point x="318" y="543" type="curve" smooth="yes"/>
      <point x="442" y="543"/>
      <point x="537" y="458"/>
      <point x="537" y="355" type="curve" smooth="yes"/>
      <point x="537" y="320" type="line"/>
      <point x="551" y="324" type="line"/>
      <point x="89" y="324" type="line"/>
    </contour>
  </outline>
</glyph>
<glyph name="partialdiff" format="2">
  <advance width="576"/>
  <unicode hex="2202"/>
  <outline>
    <contour>
      <point x="288" y="-10" type="curve" smooth="yes"/>
      <point x="430.667" y="-10"/>
      <point x="533.333" y="109.667"/>
      <point x="536" y="271" type="curve" smooth="yes"/>
      <point x="536" y="439"/>
      <point x="496" y="551.333"/>
      <point x="428" y="622" type="curve" smooth="yes"/>
      <point x="360" y="694"/>
      <point x="288.333" y="726"/>
      <point x="211" y="738" type="curve"/>
      <point x="202" y="719" type="line"/>
      <point x="374" y="691"/>
      <point x="503" y="544"/>
      <point x="503" y="368" type="curve"/>
      <point x="510" y="368" type="line"/>
      <point x="500.667" y="445.333"/>
      <point x="408" y="527"/>
      <point x="292" y="527" type="curve" smooth="yes"/>
      <point x="145.333" y="527"/>
      <point x="40" y="421.667"/>
      <point x="40" y="263" type="curve" smooth="yes"/>
      <point x="40" y="101.667"/>
      <point x="141.333" y="-10"/>
    </contour>
    <contour>
      <point x="288" y="12" type="curve" smooth="yes"/>
      <point x="156" y="12"/>
      <point x="63" y="116.333"/>
      <point x="63" y="263" type="curve" smooth="yes"/>
      <point x="63" y="405.667"/>
      <point x="156" y="505"/>
      <point x="288" y="505" type="curve" smooth="yes"/>
      <point x="420" y="505"/>
      <point x="513" y="405.667"/>
      <point x="513" y="263" type="curve" smooth="yes"/>
      <point x="513" y="116.333"/>
      <point x="420" y="12"/>
    </contour>
  </outline>
</glyph>
<glyph name="increment" format="2">
  <advance width="707"/>
  <unicode hex="2206"/>
  <outline>
    <contour>
      <point x="8" y="0" type="line"/>
      <point x="699" y="0" type="line"/>
      <point x="351" y="722" type="line"/>
    </contour>
    <contour>
      <point x="38" y="9" type="line"/>
      <point x="355" y="669" type="line"/>
      <point x="347" y="669" type="line"/>
      <point x="667" y="10" type="line"/>
      <point x="673" y="22" type="line"/>
      <point x="30" y="22" type="line"/>
    </contour>
  </outline>
</glyph>
<glyph name="infinity" format="2">
  <advance width="867"/>
  <unicode hex="221E"/>
  <outline>
    <contour>
      <point x="664" y="47" type="curve" smooth="yes"/>
      <point x="763.416" y="47"/>
      <point x="832" y="122"/>
      <point x="832" y="242" type="curve" smooth="yes"/>
      <point x="832" y="360.667"/>
      <point x="761.481" y="437"/>
      <point x="662" y="437" type="curve" smooth="yes"/>
      <point x="600.944" y="437"/>
      <point x="553.86" y="419.843"/>
      <point x="498" y="346" type="curve" smooth="yes"/>
      <point x="352" y="153" type="line" smooth="yes"/>
      <point x="306.667" y="93"/>
      <point x="259.365" y="69"/>
      <point x="205" y="69" type="curve" smooth="yes"/>
      <point x="123.853" y="69"/>
      <point x="58" y="135.333"/>
      <point x="58" y="242" type="curve" smooth="yes"/>
      <point x="58" y="348.667"/>
      <point x="123.853" y="415"/>
      <point x="205" y="415" type="curve" smooth="yes"/>
      <point x="259.365" y="415"/>
      <point x="304" y="395"/>
      <point x="352" y="331" type="curve" smooth="yes"/>
      <point x="486" y="153" type="line" smooth="yes"/>
      <point x="548.667" y="70.333"/>
      <point x="596.191" y="47"/>
    </contour>
    <contour>
      <point x="203" y="47" type="curve" smooth="yes"/>
      <point x="270.809" y="47"/>
      <point x="318.403" y="69.816"/>
      <point x="381" y="153" type="curve" smooth="yes"/>
      <point x="530" y="351" type="line" smooth="yes"/>
      <point x="564.667" y="397.667"/>
      <point x="611.521" y="415"/>
      <point x="655" y="415" type="curve" smooth="yes"/>
      <point x="743.895" y="415"/>
      <point x="809" y="347.333"/>
      <point x="809" y="242" type="curve" smooth="yes"/>
      <point x="809" y="135.333"/>
      <point x="743.147" y="69"/>
      <point x="662" y="69" type="curve" smooth="yes"/>
      <point x="607.635" y="69"/>
      <point x="560.333" y="93"/>
      <point x="515" y="153" type="curve" smooth="yes"/>
      <point x="381" y="331" type="line" smooth="yes"/>
      <point x="318.333" y="413.667"/>
      <point x="270.809" y="437"/>
      <point x="203" y="437" type="curve" smooth="yes"/>
      <point x="103.584" y="437"/>
      <point x="35" y="362"/>
      <point x="35" y="242" type="curve" smooth="yes"/>
      <point x="35" y="122"/>
      <point x="103.584" y="47"/>
    </contour>
  </outline>
</glyph>
<glyph name="integral" format="2">
  <advance width="553"/>
  <unicode hex="222B"/>
  <outline>
    <contour>
      <point x="107" y="-127" type="curve" smooth="yes"/>
      <point x="183.847" y="-127"/>
      <point x="224.317" y="-61.183"/>
      <point x="248" y="71" type="curve" smooth="yes"/>
      <point x="334" y="551" type="line" smooth="yes"/>
      <point x="354" y="663"/>
      <point x="391.667" y="723"/>
      <point x="457" y="723" type="curve" smooth="yes"/>
      <point x="493" y="723"/>
      <point x="522.667" y="706.667"/>
      <point x="548" y="688" type="curve"/>
      <point x="561" y="710" type="line"/>
      <point x="535.667" y="727.333"/>
      <point x="502.667" y="748"/>
      <point x="458" y="748" type="curve" smooth="yes"/>
      <point x="360" y="748"/>
      <point x="326" y="647"/>
      <point x="309" y="550" type="curve" smooth="yes"/>
      <point x="223" y="68" type="line" smooth="yes"/>
      <point x="203.508" y="-41.248"/>
      <point x="167.036" y="-105"/>
      <point x="109" y="-105" type="curve" smooth="yes"/>
      <point x="75.735" y="-105"/>
      <point x="54.392" y="-96.18"/>
      <point x="14" y="-61" type="curve"/>
      <point x="0" y="-81" type="line"/>
      <point x="33.944" y="-109.723"/>
      <point x="72.297" y="-127"/>
    </contour>
  </outline>
</glyph>
<glyph name="approxequal" format="2">
  <advance width="547"/>
  <unicode hex="2248"/>
  <outline>
    <contour>
      <point x="383" y="339" type="curve" smooth="yes"/>
      <point x="423" y="339"/>
      <point x="447" y="366"/>
      <point x="447" y="413" type="curve"/>
      <point x="425" y="415" type="line"/>
      <point x="425" y="384.333"/>
      <point x="414" y="360"/>
      <point x="378" y="360" type="curve" smooth="yes"/>
      <point x="365" y="360"/>
      <point x="327" y="367"/>
      <point x="293" y="374" type="curve" smooth="yes"/>
      <point x="218" y="389"/>
      <point x="187" y="396"/>
      <point x="167" y="396" type="curve" smooth="yes"/>
      <point x="123" y="396"/>
      <point x="100" y="369"/>
      <point x="100" y="322" type="curve"/>
      <point x="122" y="320" type="line"/>
      <point x="122" y="350.667"/>
      <point x="133" y="375"/>
      <point x="172" y="375" type="curve" smooth="yes"/>
      <point x="192" y="375"/>
      <point x="222" y="368"/>
      <point x="256" y="361" type="curve" smooth="yes"/>
      <point x="344" y="342"/>
      <point x="366" y="339"/>
    </contour>
    <contour>
      <point x="383" y="153" type="curve" smooth="yes"/>
      <point x="423" y="153"/>
      <point x="447" y="180"/>
      <point x="447" y="227" type="curve"/>
      <point x="425" y="229" type="line"/>
      <point x="425" y="198"/>
      <point x="414" y="174"/>
      <point x="378" y="174" type="curve" smooth="yes"/>
      <point x="365" y="174"/>
      <point x="327" y="181"/>
      <point x="293" y="188" type="curve" smooth="yes"/>
      <point x="218" y="203"/>
      <point x="187" y="210"/>
      <point x="167" y="210" type="curve" smooth="yes"/>
      <point x="123" y="210"/>
      <point x="100" y="183"/>
      <point x="100" y="136" type="curve"/>
      <point x="122" y="134" type="line"/>
      <point x="122" y="165"/>
      <point x="133" y="189"/>
      <point x="172" y="189" type="curve" smooth="yes"/>
      <point x="192" y="189"/>
      <point x="222" y="182"/>
      <point x="256" y="175" type="curve" smooth="yes"/>
      <point x="337" y="158"/>
      <point x="366" y="153"/>
    </contour>
  </outline>
</glyph>
<glyph name="greaterequal" format="2">
  <advance width="588"/>
  <unicode hex="2265"/>
  <outline>
    <contour>
      <point x="87" y="165" type="line"/>
      <point x="513" y="306" type="line"/>
      <point x="513" y="340" type="line"/>
      <point x="87" y="482" type="line"/>
      <point x="82" y="460" type="line"/>
      <point x="508" y="318" type="line"/>
      <point x="508" y="328" type="line"/>
      <point x="80" y="186" type="line"/>
    </contour>
    <contour>
      <point x="82" y="0" type="line"/>
      <point x="511" y="0" type="line"/>
      <point x="511" y="22" type="line"/>
      <point x="82" y="22" type="line"/>
    </contour>
  </outline>
</glyph>
<glyph name="acutecomb_dotaccentcomb.case" format="2">
  <anchor x="228" y="700" name="_top"/>
  <anchor x="228" y="820" name="top"/>
  <outline>
    <contour>
      <point x="261" y="762" type="line"/>
      <point x="348" y="867" type="line"/>
      <point x="325" y="884" type="line"/>
      <point x="246" y="773" type="line"/>
    </contour>
    <contour>
      <point x="181" y="768" type="curve" smooth="yes"/>
      <point x="200" y="768"/>
      <point x="209" y="780"/>
      <point x="209" y="797" type="curve" smooth="yes"/>
      <point x="209" y="814"/>
      <point x="198" y="826"/>
      <point x="181" y="826" type="curve" smooth="yes"/>
      <point x="162" y="826"/>
      <point x="153" y="813"/>
      <point x="153" y="797" type="curve" smooth="yes"/>
      <point x="153" y="780"/>
      <point x="162" y="768"/>
    </contour>
  </outline>
</glyph>
<glyph name="brevecomb_hookabovecomb.case" format="2">
  <anchor x="250" y="700" name="_top"/>
  <anchor x="250" y="820" name="top"/>
  <outline>
    <contour>
      <point x="250" y="762" type="curve" smooth="yes"/>
      <point x="317" y="762"/>
      <point x="365" y="803"/>
      <point x="382" y="862" type="curve"/>
      <point x="359" y="864" type="line"/>
      <point x="344" y="816"/>
      <point x="302" y="783"/>
      <point x="250" y="783" type="curve" smooth="yes"/>
      <point x="197" y="783"/>
      <point x="157" y="816"/>
      <point x="141" y="864" type="curve"/>
      <point x="118" y="862" type="line"/>
      <point x="137" y="803"/>
      <point x="182" y="762"/>
    </contour>
    <contour>
      <point x="247" y="872" type="curve"/>
      <point x="269" y="877" type="line"/>
      <point x="267" y="881"/>
      <point x="265" y="884"/>
      <point x="265" y="888" type="curve" smooth="yes"/>
      <point x="265" y="897"/>
      <point x="278" y="904"/>
      <point x="293" y="913" type="curve" smooth="yes"/>
      <point x="311" y="924"/>
      <point x="335" y="936"/>
      <point x="335" y="956" type="curve" smooth="yes"/>
      <point x="335" y="984"/>
      <point x="302" y="1001"/>
      <point x="254" y="1001" type="curve" smooth="yes"/>
      <point x="222" y="1001"/>
      <point x="198" y="996"/>
      <point x="175" y="987" type="curve"/>
      <point x="182" y="967" type="line"/>
      <point x="207" y="976"/>
      <point x="230" y="979"/>
      <point x="254" y="979" type="curve" smooth="yes"/>
      <point x="285" y="979"/>
      <point x="310" y="972"/>
      <point x="310" y="956" type="curve" smooth="yes"/>
      <point x="310" y="947"/>
      <point x="294" y="937"/>
      <point x="276" y="926" type="curve" smooth="yes"/>
      <point x="258" y="915"/>
      <point x="241" y="904"/>
      <point x="241" y="891" type="curve" smooth="yes"/>
      <point x="241" y="883"/>
      <point x="244" y="878"/>
    </contour>
  </outline>
</glyph>
<glyph name="caroncomb.alt" format="2">
  <anchor x="182" y="674" name="_topright"/>
  <outline>
    <contour>
      <point x="235" y="538" type="line"/>
      <point x="273" y="569"/>
      <point x="282" y="593"/>
      <point x="282" y="628" type="curve" smooth="yes"/>
      <point x="282" y="656"/>
      <point x="268" y="674"/>
      <point x="246" y="674" type="curve" smooth="yes"/>
      <point x="228" y="674"/>
      <point x="219" y="662"/>
      <point x="219" y="650" type="curve" smooth="yes"/>
      <point x="219" y="637"/>
      <point x="225" y="628"/>
      <point x="239" y="621" type="curve" smooth="yes"/>
      <point x="253" y="614"/>
      <point x="256" y="609"/>
      <point x="256" y="598" type="curve" smooth="yes"/>
      <point x="256" y="580"/>
      <point x="235" y="563"/>
      <point x="222" y="551" type="curve"/>
    </contour>
  </outline>
</glyph>
<glyph name="circumflexcomb_acutecomb" format="2">
  <anchor x="210" y="525" name="_top"/>
  <anchor x="211" y="790" name="top"/>
  <outline>
    <contour>
      <point x="101" y="621" type="line"/>
      <point x="218" y="713" type="line"/>
      <point x="203" y="713" type="line"/>
      <point x="319" y="621" type="line"/>
      <point x="331" y="634" type="line"/>
      <point x="224" y="726" type="line"/>
      <point x="196" y="726" type="line"/>
      <point x="89" y="634" type="line"/>
    </contour>
    <contour>
      <point x="325" y="725" type="line"/>
      <point x="412" y="830" type="line"/>
      <point x="389" y="847" type="line"/>
      <point x="310" y="736" type="line"/>
    </contour>
  </outline>
</glyph>
<glyph name="five.dnom" format="2">
  <advance width="355"/>
  <outline>
    <contour>
      <point x="167" y="-10" type="curve" smooth="yes"/>
      <point x="249.667" y="-10"/>
      <point x="306" y="38"/>
      <point x="306" y="114" type="curve" smooth="yes"/>
      <point x="306" y="179.684"/>
      <point x="255.667" y="231"/>
      <point x="181" y="231" type="curve" smooth="yes"/>
      <point x="134.372" y="231"/>
      <point x="97.667" y="214"/>
      <point x="79" y="190" type="curve"/>
      <point x="89" y="190" type="line"/>
      <point x="111" y="332" type="line"/>
      <point x="95" y="323" type="line"/>
      <point x="289" y="323" type="line"/>
      <point x="289" y="345" type="line"/>
      <point x="90.5" y="345" type="line"/>
      <point x="66" y="174.5" type="line"/>
      <point x="88" y="171" type="line"/>
      <point x="116" y="201.667"/>
      <point x="140.591" y="209"/>
      <point x="177" y="209" type="curve" smooth="yes"/>
      <point x="241" y="209"/>
      <point x="284" y="172"/>
      <point x="284" y="112" type="curve" smooth="yes"/>
      <point x="284" y="50.667"/>
      <point x="239.333" y="12"/>
      <point x="170" y="12" type="curve" smooth="yes"/>
      <point x="136.667" y="12"/>
      <point x="107.667" y="22.667"/>
      <point x="77" y="48" type="curve"/>
      <point x="65" y="28" type="line"/>
      <point x="91.648" y="6.008"/>
      <point x="133.667" y="-10"/>
    </contour>
  </outline>
</glyph>
<glyph name="four.dnom" format="2">
  <advance width="390"/>
  <outline>
    <contour>
      <point x="274" y="107" type="line"/>
      <point x="274" y="85" type="line"/>
      <point x="340" y="85" type="line"/>
      <point x="340" y="107" type="line"/>
    </contour>
    <contour>
      <point x="83" y="93" type="line"/>
      <point x="265" y="329" type="line"/>
      <point x="257" y="335" type="line"/>
      <point x="257" y="96" type="line"/>
      <point x="269" y="107" type="line"/>
      <point x="80" y="107" type="line"/>
    </contour>
    <contour>
      <point x="279" y="0" type="line"/>
      <point x="279" y="356" type="line"/>
      <point x="257" y="356" type="line"/>
      <point x="58" y="99" type="line"/>
      <point x="61" y="85" type="line"/>
      <point x="266" y="85" type="line"/>
      <point x="257" y="91" type="line"/>
      <point x="257" y="0" type="line"/>
    </contour>
  </outline>
</glyph>
<glyph name="g.ss01" format="2">
  <advance width="580"/>
  <anchor x="290" y="-230" name="bottom"/>
  <anchor x="290" y="525" name="top"/>
  <outline>
    <contour>
      <point x="288" y="-231" type="curve" smooth="yes"/>
      <point x="430.667" y="-231"/>
      <point x="517" y="-164"/>
      <point x="517" y="-76" type="curve" smooth="yes"/>
      <point x="517" y="20"/>
      <point x="430.667" y="79"/>
      <point x="288" y="79" type="curve" smooth="yes"/>
      <point x="183" y="79" type="line" smooth="yes"/>
      <point x="140.333" y="79"/>
      <point x="114" y="96.667"/>
      <point x="114" y="130" type="curve" smooth="yes"/>
      <point x="114" y="156.667"/>
      <point x="139" y="180"/>
      <point x="183" y="180" type="curve" smooth="yes"/>
      <point x="280" y="180" type="line" smooth="yes"/>
      <point x="397.333" y="180"/>
      <point x="475" y="254.333"/>
      <point x="475" y="357" type="curve" smooth="yes"/>
      <point x="475" y="407.667"/>
      <point x="464.667" y="448"/>
      <point x="370" y="516" type="curve"/>
      <point x="364" y="498" type="line"/>
      <point x="521" y="498" type="line"/>
      <point x="521" y="520" type="line"/>
      <point x="318" y="520" type="line"/>
      <point x="377" y="511" type="line"/>
      <point x="329" y="528.333"/>
      <point x="300" y="531"/>
      <point x="280" y="531" type="curve" smooth="yes"/>
      <point x="172" y="531"/>
      <point x="85" y="453"/>
      <point x="85" y="357" type="curve" smooth="yes"/>
      <point x="85" y="289"/>
      <point x="117" y="227"/>
      <point x="217" y="187" type="curve"/>
      <point x="195" y="201" type="line"/>
      <point x="115" y="199.667"/>
      <point x="91" y="169"/>
      <point x="91" y="129" type="curve" smooth="yes"/>
      <point x="91" y="85.895"/>
      <point x="114.329" y="58.667"/>
      <point x="201" y="56" type="curve"/>
      <point x="201" y="72" type="line"/>
      <point x="101" y="41.333"/>
      <point x="59" y="-9.333"/>
      <point x="59" y="-76" type="curve" smooth="yes"/>
      <point x="59" y="-164"/>
      <point x="138.667" y="-231"/>
    </contour>
    <contour>
      <point x="287" y="-209" type="curve" smooth="yes"/>
      <point x="163" y="-209"/>
      <point x="82" y="-152"/>
      <point x="82" y="-76" type="curve" smooth="yes"/>
      <point x="82" y="6.667"/>
      <point x="163" y="57"/>
      <point x="287" y="57" type="curve" smooth="yes"/>
      <point x="413.667" y="57"/>
      <point x="494" y="6.667"/>
      <point x="494" y="-76" type="curve" smooth="yes"/>
      <point x="494" y="-152"/>
      <point x="413.667" y="-209"/>
    </contour>
    <contour>
      <point x="280" y="202" type="curve" smooth="yes"/>
      <point x="182.667" y="202"/>
      <point x="108" y="267.667"/>
      <point x="108" y="357" type="curve" smooth="yes"/>
      <point x="108" y="442.333"/>
      <point x="182.667" y="509"/>
      <point x="280" y="509" type="curve" smooth="yes"/>
      <point x="377.333" y="509"/>
      <point x="452" y="441"/>
      <point x="452" y="357" type="curve" smooth="yes"/>
      <point x="452" y="263.667"/>
      <point x="377.333" y="202"/>
    </contour>
  </outline>
</glyph>
<glyph name="ogonekcomb.case" format="2">
  <anchor x="315" y="0" name="_ogonek"/>
  <outline>
    <contour>
      <point x="255" y="-230" type="curve" smooth="yes"/>
      <point x="295" y="-230"/>
      <point x="329" y="-208"/>
      <point x="345" y="-176" type="curve"/>
      <point x="330" y="-163" type="line"/>
      <point x="315" y="-190"/>
      <point x="290" y="-208"/>
      <point x="255" y="-208" type="curve" smooth="yes"/>
      <point x="211" y="-208"/>
      <point x="177" y="-174"/>
      <point x="177" y="-130" type="curve" smooth="yes"/>
      <point x="177" y="-59"/>
      <point x="238" y="-13"/>
      <point x="315" y="0" type="curve"/>
      <point x="310" y="18" type="line"/>
      <point x="231" y="5"/>
      <point x="155" y="-50"/>
      <point x="155" y="-130" type="curve" smooth="yes"/>
      <point x="155" y="-186"/>
      <point x="199" y="-230"/>
    </contour>
  </outline>
</glyph>
<glyph name="ringcomb.case" format="2">
  <anchor x="250" y="700" name="_top"/>
  <anchor x="250" y="835" name="top"/>
  <outline>
    <contour>
      <point x="250" y="689" type="curve" smooth="yes"/>
      <point x="299" y="689"/>
      <point x="342" y="730"/>
      <point x="342" y="777" type="curve" smooth="yes"/>
      <point x="342" y="826"/>
      <point x="301" y="867"/>
      <point x="250" y="867" type="curve" smooth="yes"/>
      <point x="199" y="867"/>
      <point x="158" y="826"/>
      <point x="158" y="777" type="curve" smooth="yes"/>
      <point x="158" y="729"/>
      <point x="201" y="689"/>
    </contour>
    <contour>
      <point x="250" y="709" type="curve" smooth="yes"/>
      <point x="211" y="709"/>
      <point x="179" y="741"/>
      <point x="179" y="777" type="curve" smooth="yes"/>
      <point x="179" y="818"/>
      <point x="209" y="847"/>
      <point x="250" y="847" type="curve" smooth="yes"/>
      <point x="290" y="847"/>
      <point x="321" y="820"/>
      <point x="321" y="777" type="curve" smooth="yes"/>
      <point x="321" y="741"/>
      <point x="290" y="709"/>
    </contour>
  </outline>
</glyph>
<glyph name="tildecomb.case" format="2">
  <anchor x="251" y="700" name="_top"/>
  <anchor x="251" y="820" name="top"/>
  <outline>
    <contour>
      <point x="311" y="784" type="curve" smooth="yes"/>
      <point x="349" y="784"/>
      <point x="383" y="808"/>
      <point x="383" y="851" type="curve"/>
      <point x="361" y="851" type="line"/>
      <point x="359" y="819"/>
      <point x="334" y="806"/>
      <point x="309" y="806" type="curve" smooth="yes"/>
      <point x="300" y="806"/>
      <point x="291" y="808"/>
      <point x="259" y="823" type="curve" smooth="yes"/>
      <point x="235" y="835"/>
      <point x="207" y="852"/>
      <point x="175" y="852" type="curve" smooth="yes"/>
      <point x="145" y="852"/>
      <point x="118" y="826"/>
      <point x="118" y="785" type="curve"/>
      <point x="140" y="785" type="line"/>
      <point x="140" y="814"/>
      <point x="158" y="830"/>
      <point x="177" y="830" type="curve" smooth="yes"/>
      <point x="197" y="830"/>
      <point x="221" y="816"/>
      <point x="229" y="812" type="curve" smooth="yes"/>
      <point x="280" y="787"/>
      <point x="295" y="784"/>
    </contour>
  </outline>
</glyph>
<glyph name="tildecomb_dieresiscomb" format="2">
  <anchor x="251" y="525" name="_top"/>
  <anchor x="250" y="815" name="top"/>
  <outline>
    <contour>
      <point x="325" y="788" type="curve" smooth="yes"/>
      <point x="344" y="788"/>
      <point x="353" y="800"/>
      <point x="353" y="817" type="curve" smooth="yes"/>
      <point x="353" y="834"/>
      <point x="342" y="846"/>
      <point x="325" y="846" type="curve" smooth="yes"/>
      <point x="306" y="846"/>
      <point x="297" y="833"/>
      <point x="297" y="817" type="curve" smooth="yes"/>
      <point x="297" y="800"/>
      <point x="306" y="788"/>
    </contour>
    <contour>
      <point x="175" y="788" type="curve" smooth="yes"/>
      <point x="194" y="788"/>
      <point x="203" y="800"/>
      <point x="203" y="817" type="curve" smooth="yes"/>
      <point x="203" y="834"/>
      <point x="192" y="846"/>
      <point x="175" y="846" type="curve" smooth="yes"/>
      <point x="156" y="846"/>
      <point x="147" y="833"/>
      <point x="147" y="817" type="curve" smooth="yes"/>
      <point x="147" y="800"/>
      <point x="156" y="788"/>
    </contour>
    <component base="tildecomb"/>
  </outline>
</glyph>
<glyph name="two.dnom" format="2">
  <advance width="346"/>
  <outline>
    <contour>
      <point x="75" y="0" type="line"/>
      <point x="295" y="0" type="line"/>
      <point x="295" y="22" type="line"/>
      <point x="90" y="22" type="line"/>
      <point x="89" y="13" type="line"/>
      <point x="217" y="156" type="line" smooth="yes"/>
      <point x="260" y="204"/>
      <point x="282" y="237"/>
      <point x="282" y="277" type="curve" smooth="yes"/>
      <point x="282" y="326.333"/>
      <point x="240.337" y="361"/>
      <point x="188" y="361" type="curve" smooth="yes"/>
      <point x="137.333" y="361"/>
      <point x="97.913" y="330.512"/>
      <point x="74" y="288" type="curve"/>
      <point x="93" y="275" type="line"/>
      <point x="119.591" y="320.205"/>
      <point x="149.333" y="339"/>
      <point x="188" y="339" type="curve" smooth="yes"/>
      <point x="226.117" y="339"/>
      <point x="260" y="314.667"/>
      <point x="260" y="276" type="curve" smooth="yes"/>
      <point x="260" y="248"/>
      <point x="241" y="217"/>
      <point x="207" y="179" type="curve" smooth="yes"/>
      <point x="72" y="26" type="line"/>
    </contour>
  </outline>
</glyph>
